<svg xmlns="http://www.w3.org/2000/svg" xmlns:xlink="http://www.w3.org/1999/xlink" width="230" height="328"><defs><path id="ap" d="M399.82 297.7a2.16 2.16 0 00-2.1-1.1c-.93.1-1.62.75-1.81 1.61a1.7 1.7 0 00.18 1.47l.04.08c0 .02 0 .05.02.06.25.5.56.88 1.12 1.05.21.06.43.08.64.08.87.14 1.8-.23 2.26-1 .46-.77.22-1.65-.35-2.25"/><path id="e" d="M441.8 377.19c2.06 1.26 7.5 3.92 7.9 2.4.73-2.7-5.96-4.82-5.96-4.82l-2.02 1.84z"/><path id="g" d="M252.73 434.52c-.98 2.22-3.94 7.5-5.13 6.48-2.14-1.82 2.16-7.36 2.16-7.36l2.7.36z"/><path id="h" d="M332.98 298.24c-13.79-6.97-23.58-11.67-31.77 4.64-8.2 16.31-10.66 26.47-14.16 39.3-3.5 12.82 16.72 36.65 14.82 47.66-1.9 11 21.12 19.44 21.12 19.44l17.25-17.33 7.47-64.37z"/><path id="i" d="M313.03 303.08c-5.44 3.09-7.22 8.44-8.81 14.1a140.66 140.66 0 01-5.47 15.4c-3.23 7.86-6.79 15.67-9.59 23.71 4.66 12.05 14.03 25.9 12.7 33.55-1.9 11 21.13 19.44 21.13 19.44l17.24-17.34 7.48-64.36-13.74-27.36c-7.3-.74-14.97-.52-20.94 2.86"/><path id="j" d="M318.3 402.57c10.84 6.16 43.63 3.27 43.63 3.27l2.92 1.4-.45 18.1-13.42 16.56-17.18-2.51-17.49-18.52z"/><path id="k" d="M310.75 333.5c-.15-1.53-2.68-1.54-4.07-.93-1.5.66-3.05 2.74-3.29 4.65a.75.75 0 00-.15.2c-.59 1.01.09 2.02 1.03 2.38.86.61 2.07.21 2.87-.6l.09-.1c.49-.36.93-.8 1.26-1.24.74-.98 2.39-3.13 2.26-4.37"/><path id="l" d="M368.81 536.51c-3.35 8.47.98 12.99.12 25.7-.86 12.72 7.95 15.74 5.26 19.09-2.69 3.35-20.84 5.02-24.26-9.95-3.43-14.97-10.78-25.25-6.48-31.36 4.3-6.12 8.02-9.08 8.02-9.08s8.9-1.2 9.24-.48c.35.73 8.1 6.08 8.1 6.08"/><path id="m" d="M374.28 578.48c-1.43-2.85-5.97-6.96-5.34-16.26.86-12.72-3.1-18.25.25-26.72 0 0-3.74-1.32-6.14-3.11a76.42 76.42 0 00-2.32 15.95c-.38 10.73 2 26.73 13.55 30.14"/><path id="n" d="M302.75 487.8c-7.9-2.46-14.93 3.83-12.58 15.63 2.36 11.8 7.95 15.07 8.76 22.23.81 7.17 4.24 16.56 10.99 18.42 6.75 1.85 14.24 3.7 12.16-6.78-2.08-10.47-3.78-15.51-3.34-23.1.44-7.6 1.73-11.24-1.01-19.49-2.73-8.24-14.98-6.91-14.98-6.91"/><path id="o" d="M297.14 487.41c1.35 0 .85-.16-.43.39-2.93 1.25-5.25 3.7-5.73 6.9-.52 3.42-.17 8.5 1.28 11.47 1.37 2.82 3.34 5.33 4.97 8a30.27 30.27 0 013.66 8.82c.5 2.1.84 4.22 1.34 6.32a15.2 15.2 0 002.73 5.34c.96 1.3 2.02 2.59 3.28 3.62a74.6 74.6 0 01-.83-3.84 136.2 136.2 0 01-1.9-17.38c-.44-7.66.24-14.9 1.94-22.38.55-2.4 1.19-4.77 1.89-7.12 3.16.82 6.93 2.73 8.4 7.16 2.73 8.25 1.45 11.9 1 19.49-.44 7.59 1.27 12.63 3.34 23.1 2.07 10.4-5.29 8.66-12 6.82-.2-.48-.37-.98-.55-1.48-1.4-.45-2.58-.99-3.14-1.41a24.98 24.98 0 01-6.32-7.4 18.87 18.87 0 01-1.95-4.88c-.44-1.75-.39-3.47-.6-5.23a11.64 11.64 0 00-.73-4.2c-.61-1.46-1.52-2.76-2.36-4.09-2.7-4.26-5.07-9.22-5.71-14.27-.58-4.52 2.56-13.75 8.42-13.75"/><path id="p" d="M308.21 476.69c-1.4 4.23-2.98 8.4-6.06 11.81-8.34 9.22 5.56 25.6 13 18.94 2.2-1.97 4.6-4.56 7.33-7.39-7.76-5.05-12.35-13.85-14.27-23.36"/><path id="q" d="M308.21 476.69a49.09 49.09 0 01-2.71 6.82c.75 5.07 2.44 9.77 4.45 14.45 1.35 3.14.9 4.44-1.51 6.67-.74.68-1.63 1.57-2.6 2.37 3.03 2.23 6.6 2.87 9.3.44 2.21-1.97 4.62-4.56 7.33-7.39-7.75-5.05-12.34-13.85-14.26-23.36"/><path id="r" d="M350.44 462.64c-2.1-8.6-17.6-11.24-30.1-4.68-7.89 4.14-9.75 11.53-12.13 18.74 1.92 9.5 6.51 18.3 14.26 23.36 6.43-6.7 14.61-14.74 26.16-19.25 0 0 3.92-9.57 1.81-18.17"/><path id="s" d="M343 455.55c-.6.99-1.19 1.98-1.75 2.98-2.98 5.27-5.95 10.54-9.2 15.65a146.24 146.24 0 01-10.06 14.03 37.82 37.82 0 01-5.89 6.08 28.01 28.01 0 006.37 5.77c6.43-6.7 14.61-14.74 26.16-19.25 0 0 3.92-9.57 1.81-18.17-.8-3.3-3.6-5.73-7.44-7.09"/><path id="t" d="M383.48 432.72c10.27 12.9 25.17 34.16 17.78 41.11-7.4 6.96-16.06 19.74-31.62 10.14-15.56-9.6-20.3-24.3-23.17-36.85-2.87-12.56 3.76-26.63 10.53-31.72 6.78-5.1 7.85-8.16 7.85-8.16 6.89 3.36 8.35 12.56 18.63 25.48z"/><path id="u" d="M390.6 476.33c-1.6-4.86-3.77-9.77-7.69-13.2-3.29-2.9-7.25-4.86-11-7.08-14.36-8.55-20.27-23.9-16.28-39.48-6.26 5.84-11.84 18.85-9.16 30.55 2.87 12.56 7.61 27.26 23.17 36.86 9.82 6.05 16.9 3.2 22.64-1.48a67.6 67.6 0 00-1.68-6.17"/><path id="v" d="M351.64 498.28c.45 10.47 2.99 22.06.13 31.5-4.09 13.52 12.53 15.37 16.04 8.7 2.72-5.15 6.5-18.05 11.43-27.97-11.11-.05-21.71-2.66-27.6-12.23"/><path id="w" d="M351.64 498.28c.1 2.53.34 5.12.59 7.73a51.38 51.38 0 005.81 8.19 20.58 20.58 0 003.41 3.11c.82.57 2.35.95 3.02 1.58 1.11 1.05.86 3.12.89 4.57.09 5.24-.87 8.03-2.09 13.1-.25 1.05-1.86 4.6-2.07 5.65 4.38.23 5.6-1.81 6.61-3.72 2.72-5.16 6.5-18.06 11.43-27.98-11.11-.05-21.71-2.66-27.6-12.23"/><path id="x" d="M391.05 459.91c-10.25-7.61-12.93 4.34-30.34 15.38-8.22 5.21-9.47 13.65-9.06 22.99 5.88 9.57 16.49 12.17 27.6 12.22 1.44-2.9 2.7-5.3 3.6-6.8 3.97-6.6 8.63-18.95 18.41-29.86 0 0 .03-6.3-10.21-13.93"/><path id="y" d="M394.79 475.33c-3.85.4-8.65-2.31-10.48-6.07-.32.96-.63 1.92-.97 2.88-4.43 12.6-9.7 24.89-14.34 37.4 3.28.67 6.74.95 10.25.96 1.43-2.9 2.69-5.3 3.59-6.8 3.98-6.6 8.63-18.95 18.42-29.87l-.02-.3a18.75 18.75 0 01-6.45 1.8"/><path id="z" d="M305.22 391.84c-18.13 11.25-17.65 35.04-10.16 41.52 7.5 6.48 20.3 20.22 25.28 24.6 2.67 11.7 19.1 26.46 28.3 22.84 9.2-3.61 16.27-9.66 11.15-24.54-5.12-14.87-9.43-19.8-13.4-26.05-3.96-6.24-33.76-35.15-41.17-38.37"/><path id="A" d="M302.72 431.9c-3.75-10.55-5.1-21.84 2.47-31.08 2-2.44 4.2-3.87 6.55-4.53-2.8-2.22-5.09-3.82-6.53-4.45-18.13 11.25-17.65 35.04-10.16 41.52 3.72 3.21 8.75 8.22 13.48 12.98-2.35-4.66-4.12-9.7-5.8-14.44"/><path id="B" d="M305.62 389.17c-1.13.9-3.47 3.11-2.76 5.28.72 2.17 23.43 22.32 44.02 20.5 12.73-1.24 19.02-7.12 19.02-7.12l-.02-9.28-47.12-4.41z"/><path id="C" d="M304.7 395.29c.27 0 .5-.21.52-.48.05-.7.75-1.99 1-2.43a.51.51 0 10-.88-.53c-.1.19-1.07 1.83-1.15 2.88-.02.29.2.53.48.56h.04"/><path id="D" d="M307.89 398.16h.07c.28-.04.48-.3.44-.58-.1-.84.54-2.76.8-3.43a.52.52 0 00-.96-.37c-.1.27-1.02 2.69-.86 3.93.03.26.25.45.51.45"/><path id="E" d="M312.35 401.57h.07c.28-.05.48-.3.44-.59-.26-1.86 1.35-4.84 1.37-4.87a.51.51 0 10-.9-.5c-.08.14-1.8 3.32-1.5 5.51.04.26.26.45.52.45"/><path id="F" d="M317.78 405.2c.28 0 .5-.23.51-.51.03-1.85 1.14-6.11 1.15-6.15a.52.52 0 00-1-.26c-.04.17-1.15 4.42-1.18 6.4 0 .28.22.51.5.52z"/><path id="G" d="M323.69 408.38c.26 0 .49-.2.51-.47.16-2 1.09-5.66 1.1-5.7a.52.52 0 00-1-.25c-.04.15-.96 3.78-1.13 5.86a.52.52 0 00.52.56"/><path id="H" d="M328.98 410.62c.22 0 .43-.15.5-.38.34-1.29 1.77-5.7 1.79-5.75a.52.52 0 00-.98-.31c-.06.18-1.46 4.48-1.81 5.79a.51.51 0 00.5.65"/><path id="I" d="M335.98 412.67c.22 0 .42-.14.49-.36.3-1.02 1.5-4.72 1.5-4.72l-.99-.32s-1.2 3.72-1.5 4.74a.52.52 0 00.5.66"/><path id="J" d="M343.22 414.02h.03c.28-.01.5-.26.48-.54-.04-.8.55-2.98.79-3.74a.52.52 0 00-.99-.3c-.09.3-.9 2.96-.83 4.1.02.27.25.48.52.48"/><path id="K" d="M351.99 413.3c.2 0 .4-.13.48-.33.4-1.03.26-3.75.24-4.06a.52.52 0 00-.54-.49.52.52 0 00-.49.54c.06 1.08.06 3.01-.18 3.63a.52.52 0 00.49.7"/><path id="L" d="M357.06 411.45c.23 0 .44-.16.5-.4.35-1.42.33-4.77.33-4.9 0-.3-.2-.54-.52-.52a.51.51 0 00-.51.52c0 .03.02 3.36-.3 4.65a.52.52 0 00.5.65"/><path id="M" d="M361.36 409.26c.25 0 .47-.19.5-.45.2-1.4.27-5.16.28-5.32a.52.52 0 10-1.03-.03c0 .04-.09 3.87-.27 5.21a.52.52 0 00.52.59"/><path id="N" d="M364.2 407.85c.29 0 .52-.23.52-.51.02-1.02-.02-4.94-.02-5.1 0-.3-.2-.52-.52-.52a.52.52 0 00-.51.52c0 .04.04 4.08.02 5.08 0 .29.22.52.5.53z"/><path id="O" d="M352 489.2c-1.05 10.2 15.33 16.93 23.09 15.72 7.75-1.21 10.22-5.75 10.22-5.75.37-3.26 2.57-5.03 2.57-5.03s7.93 16.93-10.67 20.52c-18.6 3.58-36.11-17.7-25.2-25.46"/><path id="P" d="M311.36 467.91c-2.59 7.07 5.71 30.68 15.85 27.37 1.67-2.88 3.91-3.58 3.91-3.58-.45 8.75-6.36 17.4-15.39 9.36-9.02-8.05-10.3-20.2-9.66-24.05.94-5.58 3.9-10.43 5.3-9.1"/><path id="Q" d="M370.24 355.62c5.78 8.69 16.19 24.68 24.38 29.02 8.19 4.33 34.21 3.73 38.26 1.5 4.05-2.23 4.93-9.25 2.04-10.8-2.9-1.56-25.98-10.63-29.29-9.12-3.3 1.5 1.76-2.19-15.54-29.3-4.97-7.55-17.44-4.33-19.31 2.47-1.88 6.8-2.52 9.98-.54 16.23"/><path id="R" d="M395.3 382.8c-2.79-3.99-4.44-8.67-5.47-13.4a57.1 57.1 0 01-1.05-17.04c.48-5.84 1.16-11.69-.27-17.28-5.64-5.08-16.03-1.85-17.73 4.31-1.88 6.8-2.52 9.98-.54 16.23 5.78 8.69 16.19 24.68 24.38 29.02.87.45 1.94.85 3.17 1.2a27.75 27.75 0 01-2.48-3.03"/><path id="S" d="M434.92 375.33c-2.11-1.13-15-6.28-23.08-8.38-5.15 5.2-7.46 13-6.6 20.28 10.78 1.26 24.77.5 27.65-1.09 4.04-2.23 4.93-9.26 2.03-10.8"/><path id="b" d="M408.4 365.77h60.25v27.14H408.4z"/><path id="U" d="M410.3 390.19c-2.27-1.18-3.88-18.12 3.54-23.7 8.3 2.72 19.33 8.04 19.33 8.04s.38-1.33 2.08-1.04a314.1 314.1 0 0114.36-6.64c2.86-1.2 10.9-1.55 12.74-.26 1.83 1.3 8.76 8.29 5.39 8.27-3.37-.02-4.24-.97-5.6-2.56-.63 1.16-5.1.9-5.1.9 5.5 2.6 6.8 5.29 7.15 7.45.35 2.17-5.69.99-6.89-1.4-2.2-1.91-3.12-1.93-3.12-1.93-.85 1.32-5.35.72-5.35.72-1.46 1.22-4.56 2.2-2.28 5.79 1.25 1.23 2.87 3.2 5.62 2.27 2.75-.93 3.35.9 3.82 1.75.46.85-4.95 2.14-8.33 4.29-3.25 2.07-12.57-.26-15.2-4.15-4.7-.61-15.2 1.44-22.16 2.2"/><path id="V" d="M427.28 384.69c-5.76-2.23-12.6-1.27-18.78-.66.26 3.25.99 5.73 1.8 6.15 6.35-.69 17.01-2.36 22.16-2.2-.87-1.35-3.37-2.6-5.18-3.3"/><path id="W" d="M449.44 373.84c-1.55 1.66-4.3 5.28-3.7 7.86-.1-1.93 1.97-2.73 3.09-3.67 0 0 4.5.6 5.35-.71 0 0 .92.01 3.12 1.92 1.2 2.4 7.24 3.57 6.89 1.4-.36-2.16-1.66-4.84-7.16-7.44 0 0 4.48.25 5.1-.9 1.36 1.59 2.23 2.53 5.6 2.55 2.11.02.2-2.7-1.98-5.07-5.66-1.3-12.48-.04-16.31 4.06"/><path id="X" d="M380.03 349.78c-.18 13.92-3.29 17.58-5.15 20.98-1.87 3.4-4.49 19.08-6 20.67-1.5 1.6 3.12 6.45-2.99 9.82-6.1 3.38-11.8 8.34-18.57 9.38-9.75 1.5-15.6-6.88-34.04-12.35-12.16-3.6-12.92-11.1-7.82-16.23 5.1-5.13-.43-36.65 5.16-43.04 5.6-6.39 21.06-18 29.48-17.21 8.41.79 35.31 9.52 37.77 15.89 2.46 6.37 2.23 7.29 2.16 12.09"/><path id="Y" d="M377.86 337.69c-2.46-6.37-29.36-15.1-37.77-15.9-8.42-.78-23.88 10.83-29.48 17.22-4.23 4.84-2.08 24.11-3.01 35.4.2.09.4.19.62.27a15.1 15.1 0 009.42.22c6.5-1.95 7.85-7.15 8.11-13.27.04-.86 1.33-.95 1.63-.22a74.35 74.35 0 004.2 8.73c2.17 3.8 4.76 4.9 9 5.4 8.17.96 16.39-.83 24.53-1.55 1.01-1.1 1.9-2.3 2.77-3.51 3.54-6.37 7.58-12.55 11.46-18.6l.67-1.05.02-1.05c.06-4.8.3-5.72-2.17-12.09"/><path id="Z" d="M323.63 347.75c2.31 4.66 4.13 21.59 16.35 23.26 12.21 1.67 28.2.73 32.34-2.12 4.14-2.85 9.27-22.07 10.97-25.25 1.69-3.19 4.4-12.14-9.45-17.54-13.86-5.4-21.26-8.3-52.38-.16-6.14 2.1 2.17 21.8 2.17 21.8"/><path id="aa" d="M360.28 363.62c.2 0 .38-.1.47-.29 2.17-4.36-2.46-17.19-2.66-17.73a.53.53 0 00-.99.36c.05.13 4.68 12.94 2.7 16.9a.53.53 0 00.48.76"/><path id="ab" d="M330.43 323.84a5 5 0 00-.04-.07c-2.75.62-5.7 1.34-8.93 2.18-6.13 2.1 2.17 21.8 2.17 21.8.74 1.5 1.44 4.29 2.45 7.42 6.63-5.83 7.77-18.48 6-26.23-.4-1.74-.95-3.45-1.65-5.1"/><path id="ac" d="M336.72 328.47c4.41 4.28 10.67 6.76 16.4 8.72 10.37 3.55 21.6 4.93 31.56 1.38.16-3.95-1.84-8.96-10.84-12.46-11.95-4.66-19.11-7.45-40.82-2.91.93 1.9 2.08 3.7 3.7 5.27"/><path id="ad" d="M291.04 388.46c10.58-2.94 33-27.46 31.85-34.66-1.17-7.2 4.56-22.89-3.74-22.48-8.3.4-12.61 2.96-15.97 8.81-3.35 5.85-18.75 21.27-24.12 27.19-5.38 5.91-13.1 23.45 11.98 21.14"/><path id="ae" d="M307.02 341.31c4.87-1.36 8.38.39 11.62 4.01 1.42 1.6 2.79 3.25 4.11 4.94.33-7.82 3.52-19.3-3.6-18.94-8.3.4-12.6 2.96-15.96 8.81a36.37 36.37 0 01-3.17 4.36 29.18 29.18 0 017-3.18"/><path id="af" d="M378.02 357.24c10.55-11.91 19.77-29.95 9.03-31.74-10.75-1.78-12.77 2.5-12.77 2.5 3.38 2.12 2.47 1.18 6.58 3.1.5 1.6 1.15 17.17-2.84 26.14"/><path id="ag" d="M325.53 327.65c3.57 8.07 16.96 19.27 29.97 19.34 13 .06 26.51-10.03 25.77-19.54-.74-9.52-22.58-16.37-22.58-16.37s-21.93-.64-28.32 4.99c-2.73 2.4-3.56 4.82-5.08 5.86-2.6 1.8-.65 4.1.24 5.72"/><path id="ah" d="M275.42 414.25c3.14-9.66 14.55-25.08 19.91-30.9 5.37-5.81-9.53-22.47-17.8-13.97-4.92 5.05-14.8 19.58-11.98 42.76 2.8 23.17 9.87 2.1 9.87 2.1"/><path id="ai" d="M286.78 395.88c-.36-2.55-15.82-9.66-23.54-4.5-.17 8.74 1.2 20.9 1.2 20.9s-1.38-.08-1.66 1.62a315.07 315.07 0 00-11.02 11.36c-2.07 2.3-5.06 9.78-4.45 11.94.62 2.16 4.93 11 6.02 7.81 1.1-3.19.03-5.61-1.02-7.42 1.59-1.36 2.05-4.57 2.05-4.57.64 6.05 3.69 9.51 5.61 10.56 1.93 1.05 2.81-5.04.95-6.97-1.07-2.7-.78-3.58-.78-3.58 1.71-2.36 1.75-4.71 1.75-4.71 1.64-.97 5.43-.85 6.9 1.2.74 1.6.36 3.28-1.43 5.56-1.78 2.29-.25 3.46.4 4.18.64.72 5.37-5 8.52-7.48 3.03-2.39 2.64-8.17-.17-11.94.98-4.64 7.66-17.66 10.67-23.96"/><path id="aj" d="M268.78 429.52c.06.13.1.26.15.4-.12-.5-.3-1-.57-1.5-1.48-2.65-3.9-3.1-6.41-2.55-3.41 1.47-4.34 5.33-3.39 8.75.5 1.81 1.6 4.55 3.38 5.66.04-1.4-.26-2.88-1.02-3.67-1.08-2.7-.79-3.58-.79-3.58 1.72-2.36 1.76-4.71 1.76-4.71 1.63-.97 5.43-.85 6.89 1.2"/><path id="ak" d="M254.36 433.02c.02.26.06.5.1.75a21.59 21.59 0 01-.11-4.19 8.29 8.29 0 00-3.34 6.34c-.16 2.34.51 6.29 2.59 8.12.6-2.72-.35-4.84-1.3-6.45 1.6-1.37 2.06-4.57 2.06-4.57"/><path id="al" d="M281.49 405.73a32.61 32.61 0 01-4.3 6.41c-1.35 1.46-5.3 3.55-5.19 5.59.1 1.63 4.68 3.58 5.74 5.52.1.16.17.32.24.49-.37-1.39-1-2.74-1.87-3.9.98-4.64 7.66-17.66 10.67-23.97-.08-.54-.85-1.3-2.08-2.09.29 4.17-1.15 8.2-3.21 11.95"/><path id="am" d="M320.02 318.94c-9.64-2.6-18.01 2.16-19.5 9.06-1.36 6.3-1.21 7.42 1.37 14.09.28-.49.67-.85.9-1.27.25-.46.61-1.02.84-1.43 2.1-6.25 7.62-8.08 11.19-2.63 4.34 6.63 6.76 17.48 6.88 21.83 7.57-8.9 7.95-37.05-1.68-39.65"/><path id="an" d="M378.28 301.78c-.74 1.4 1.91 6.32 3.85 7.94 3.26-1 14.97-8.22 14.97-8.22l-.84-2.15z"/><path id="ao" d="M399.77 303.02a3.74 3.74 0 001.58-2.96c.08-4.02-6.74-5.98-7.77-1.66-.58 2.4 1.74 5.15 4.15 5.24.76.02 1.46-.2 2.04-.62"/><path id="a" d="M247 433.64h5.73v7.5H247z"/><path id="aq" d="M362.22 342.8c-20.86 2.64-36.22-17.45-37.64-22.59-1.43-5.14-4.12-23.34 4.98-32.1 9.23-8.87 21.27-11.92 34.1-8.03 16.37 4.96 23.35 18.55 22.54 31.52-.8 12.97-7.27 29.07-23.98 31.2"/><path id="ar" d="M332.69 321.94c-2.65-4.71-5.37-8.91-9.51-10.98.25 4.04.9 7.45 1.4 9.25 1 3.57 8.71 14.35 20.33 19.72-5.16-5.15-8.66-11.67-12.22-18"/><path id="as" d="M379.89 294.5c1.17.82.61 5.07.32 6.21-.5 2-1.63 3.72-3.12 5.11-3.85 3.6-9.86 4.01-14.78 2.57-6.33-1.85-15.76-10.09-14.26-17.52-15.25 9.85-15.7 26.17-11.14 37.54 5.07 12.65 28.04 18.44 40.71 4.27 12.68-14.17 7.6-34.46 2.27-38.18"/><path id="at" d="M379.86 321.35c-.41-.4-1.21-.4-1.55.11-.3-.09-.61-.08-.94.1-7.87 4.13-18.06 5.91-26.13 1.18-8.74-5.12-8.1-17.19-5.36-25.56.26-.8-.73-1.49-1.3-.77-.26.3-.5.64-.72.98-10.64 9.94-8.95 30.48 3.02 37.85 5.36 3.3 14.22 3.67 21.45 1.17 4.03-2.24 7.31-6.83 10.15-10.34.42-1.58.88-3.16 1.38-4.72"/><path id="au" d="M382.5 303.97c-1.01 1.68-2.58 3.77-4.34 4.88.71 4.8 1.72 10.68-.26 15.08-1.41 3.15-3.96 6.27-6.58 8.98a26.55 26.55 0 01-9.9 4.85c-.25.06-.31.48 0 .5 7 .34 14.45-6.11 18.1-11.7 3.64-5.56 5.4-16.1 3.12-22.38a.56.56 0 00-.14-.21"/><path id="av" d="M339.59 287.18c-.1 2.23-2.03 4.2-3.43 5.77-1.4 1.57-3.48 3.73-5.75 3.8-1.92.05-2.91-1.66-2.66-3.4.1-.8.38-1.61.77-2.4 1.06-3.26 4.59-6.35 7.65-6.88 1.97-.34 3.51 1.13 3.42 3.11"/><path id="aw" d="M330.03 293.1c1.55.31 5.53-3.6 6.54-5.92-1.87-2.86-12.07-12.08-12.07-12.08l-1.83 1.41z"/><path id="ax" d="M325.21 272.11c-.89-.71-2.12-1-3.28-.68-3.89 1.04-3.87 8.13.58 7.92 2.46-.12 4.45-3.11 3.86-5.45a3.32 3.32 0 00-1.16-1.79"/><path id="ay" d="M323.3 273.9a2.13 2.13 0 00-1.14-1.07c-1.28-.5-2.57.42-2.72 1.73-.05.44-.03 1.06.16 1.46.13.28.32.52.56.7.86.8 2.12.37 2.82-.46.32-.33.54-.75.58-1.22.05-.42-.06-.8-.25-1.13"/><path id="az" d="M369.41 282.56c-1.74-.91-4.54-2.13-6.69-.12-4.1 3.86 1.61 10.96 6.13 10.94 6.66-.02 8.69-6.57.56-10.82"/><path id="aA" d="M365.03 282.7c.38-.16 8.48-12.69 9.1-12.93.63-.25 2.07.82 2.07.82s-2.58 15.33-3.34 17.2c-.76 1.88-4.51 2.26-6.63.91-2.1-1.35-1.95-5-1.2-6"/><path id="c" d="M371.32 266H379v9.02h-7.68z"/><path id="aC" d="M378.29 267.98a4.3 4.3 0 00-.6-.8c-2-2.1-5.38-1.29-6.21 1.5-.94 3.12 2.47 8.25 5.87 5.6 1.86-1.43 2.1-4.33.94-6.3"/><path id="aD" d="M375.84 271.11a2.3 2.3 0 01-1.63-.06c-.5-.06-.98-.26-1.3-.67a2.1 2.1 0 01-.43-1.7c.18-1 1.02-1.67 1.96-1.86 1.21-.4 2.55.21 2.99 1.43a2.15 2.15 0 01-1.6 2.86"/><path id="aE" d="M344.97 410.78c2.51 0 4.63-.86 5.81-2.44 1.59-2.11 1.4-5.27-.55-8.89-1.47-2.74-.53-3.56 1.33-5.2 3.02-2.64 7.58-6.65 4.45-22.03a.53.53 0 00-.62-.41.53.53 0 00-.41.62c3 14.78-1.28 18.54-4.11 21.03-1.84 1.62-3.43 3.01-1.57 6.49 1.74 3.24 1.96 5.99.64 7.75-1.32 1.77-4.12 2.45-7.3 1.77a.53.53 0 00-.22 1.03c.88.19 1.74.28 2.55.28"/><path id="aF" d="M339.37 422.14a.53.53 0 00.36-.91c-8.26-7.96-18.04-9.43-24.8-9.25-.29.01-.52.25-.51.54 0 .3.26.55.54.52 6.56-.16 16.04 1.25 24.04 8.95.1.1.23.15.37.15"/><path id="aG" d="M343.7 427.89a.53.53 0 00.38-.9c-4.42-4.6-13.07-9.9-20.38-10.68a.54.54 0 00-.58.47c-.03.3.18.55.47.58 7.06.75 15.44 5.9 19.74 10.37.1.1.24.16.38.16"/><path id="aH" d="M321.17 348.34h.08c1.06-.17 4.21-.57 4.24-.57a.48.48 0 00.42-.54.49.49 0 00-.54-.42c-.13.02-3.2.4-4.28.58a.48.48 0 00.08.95"/><path id="aI" d="M320.07 344.81c.16 0 .32-.08.43-.22a3.32 3.32 0 014.66-1.13.53.53 0 00.58-.88c-.03-.02-3.48-2.26-6.1 1.4a.53.53 0 00.43.83"/><path id="aJ" d="M318.29 340.49c.2 0 .39-.12.48-.3.58-1.27 3.47-3.36 5.53-3.37.77 0 1.28.3 1.57.9.13.26.44.37.7.25a.53.53 0 00.25-.7c-.46-1-1.33-1.51-2.51-1.51h-.02c-2.4.01-5.68 2.25-6.48 3.98a.53.53 0 00.48.75"/><path id="aK" d="M316.23 336.15c.27 0 .5-.21.53-.5.23-3.33 2.87-6.02 5.2-6.6.74-.2 2.1-.31 2.9.96a.53.53 0 10.9-.56c-.84-1.34-2.32-1.86-4.06-1.43-2.74.69-5.73 3.7-6 7.57a.53.53 0 00.53.56"/><path id="aL" d="M313.44 333.33c.06 0 .11 0 .17-.03.28-.09.43-.39.34-.66-1.42-4.27.41-8.26 2.85-9.84 1.64-1.05 3.35-.95 4.7.28a.53.53 0 10.71-.78c-1.7-1.56-3.94-1.7-5.98-.38-2.77 1.8-4.87 6.27-3.29 11.05.08.22.28.36.5.36"/><path id="aM" d="M310.36 331.11c.11 0 .23-.03.32-.1a.53.53 0 00.1-.75c-1.79-2.3-2.71-5.03-2.41-7.12a3.44 3.44 0 011.36-2.41.53.53 0 10-.62-.86c-.97.7-1.59 1.78-1.78 3.12-.35 2.36.66 5.4 2.61 7.92.1.13.26.2.42.2"/><path id="aN" d="M306.68 333.1a.53.53 0 00.2-1.02c-3.47-1.42-4.36-5.29-4.14-6.66a.53.53 0 00-1.05-.16 8.02 8.02 0 004.79 7.8c.07.03.13.04.2.04"/><path id="aO" d="M304.26 336.68c.2 0 .4-.15.45-.36a.46.46 0 00-.35-.55c-.01 0-1.7-.44-3.2-2.4a.46.46 0 10-.73.55 7.22 7.22 0 003.83 2.76"/><path id="aP" d="M322.68 352.7c.73 0 1.45-.38 1.86-.7a.53.53 0 00-.65-.84c-.01.01-1.08.81-1.7.32a.53.53 0 10-.66.83c.36.28.75.39 1.15.39"/><path id="aQ" d="M390.68 333.42c.07 0 .15-.01.23-.05a.53.53 0 00.24-.7c-.88-1.8-4.33-3.62-8.93-1.82a.53.53 0 10.38.98c4.13-1.6 6.99.05 7.6 1.3.1.18.28.3.48.3"/><path id="aR" d="M388.96 328.05a.53.53 0 00.14-1.03c-.12-.04-2.89-.78-5.25-.46a.53.53 0 10.14 1.05 14.53 14.53 0 014.97.44"/><path id="aS" d="M389.05 337.31c.18 0 .35-.09.45-.25a.53.53 0 00-.16-.72c-.18-.12-4.4-2.76-7.2-.87a.53.53 0 00.58.87c2.25-1.5 6.01.86 6.05.89.09.05.19.08.28.08"/><path id="aT" d="M386.84 341.91a.53.53 0 00.32-.95c-.13-.09-3.05-2.27-5.08-1.34a.53.53 0 00.44.96c1.21-.56 3.3.7 4 1.23.1.07.2.1.32.1"/><path id="aU" d="M385.1 345.71c.14 0 .3-.06.4-.18a.53.53 0 00-.06-.74c-.21-.19-2.1-1.75-3.58-1.07a.53.53 0 00.45.96c.68-.32 1.94.47 2.44.9.1.1.22.13.34.13"/><path id="aV" d="M382.65 349.07a.53.53 0 00.06-1.05l-.71-.09a.53.53 0 10-.12 1.05l.7.08h.07"/><path id="aW" d="M432.45 388.52c.13 0 .26-.05.36-.15.21-.2.23-.53.03-.74-.15-.16-3.68-3.92-6.47-3.66a.53.53 0 00-.48.57c.03.3.27.51.57.48 1.9-.17 4.69 2.35 5.6 3.33.1.1.25.17.39.17"/><path id="aX" d="M331.9 470.79a.53.53 0 00.15-1.04c-3.8-1.1-7.3-5.5-9.35-8.58 2.23 1.9 5.34 4.22 7.37 4.44.27.03.55-.17.58-.46a.53.53 0 00-.47-.59c-2.51-.27-7.67-4.85-9.44-6.59a.53.53 0 00-.69-.05.53.53 0 00-.15.67c.22.42 5.48 10.33 11.85 12.18l.15.02"/><path id="aY" d="M314 513.93c.93 0 1.92-.11 2.97-.33a.53.53 0 00-.22-1.04c-3.13.67-5.66.26-7.5-1.21-3.28-2.64-3.36-7.86-3.36-7.92a.53.53 0 00-.53-.52c-.3 0-.53.24-.53.53 0 .24.08 5.77 3.76 8.73a8.38 8.38 0 005.4 1.76"/><path id="aZ" d="M307.22 512.23c.13 0 .26-.04.36-.13.21-.2.23-.54.03-.75-.03-.04-3.37-3.71-3.79-6.66a.53.53 0 00-.6-.44.53.53 0 00-.44.6c.46 3.26 3.9 7.05 4.05 7.21.1.12.25.17.4.17"/><path id="ba" d="M298.13 504.93c.17 0 .33-.07.43-.22.16-.23 1.43-2.38-1.54-8.3-.9-1.8-1.17-3.12-.82-4.02.47-1.23 2.17-1.87 4.31-2.68l1.85-.71a.53.53 0 10-.4-.98c-.64.26-1.24.49-1.82.7-2.4.9-4.28 1.62-4.93 3.28-.47 1.21-.2 2.76.87 4.89 2.68 5.34 1.61 7.22 1.6 7.23a.53.53 0 00.45.81"/><path id="bb" d="M363.3 547.67a4 4 0 00.96-.11c1.55-.39 2.58-1.67 3.05-3.83a.53.53 0 10-1.03-.22c-.38 1.72-1.15 2.74-2.27 3.02-2.4.6-5.92-2.02-7.65-4.06a.53.53 0 00-.8.68c1.58 1.88 4.9 4.52 7.73 4.52"/><path id="bc" d="M366.49 467.92c.05 0 .1 0 .14-.02 6.64-1.9 12.48-3.44 12.54-3.45a.53.53 0 10-.27-1.02c-.06.01-5.9 1.56-12.56 3.46a.53.53 0 00.15 1.03"/><path id="bd" d="M412.23 386.93a.53.53 0 00.52-.64c-1.29-5.74.04-13.41 2.9-16.76a.53.53 0 10-.8-.68c-3.05 3.56-4.48 11.65-3.13 17.67.05.24.27.4.51.4"/><path id="be" d="M430.72 379.63c.22 0 .43-.15.5-.37.37-1.18.87-2.38 1.5-3.56a.53.53 0 00-.94-.49 22.61 22.61 0 00-1.57 3.73.53.53 0 00.5.69"/><path id="bf" d="M269.82 415.8c.19 0 .37-.1.47-.28a.53.53 0 00-.24-.71c-2.21-1.13-5.9-.65-6.06-.63a.53.53 0 00-.46.6c.04.28.31.5.6.45.03 0 3.53-.46 5.45.52.07.04.15.06.24.06"/><path id="bg" d="M265.55 412.67c.04 0 .08 0 .12-.02.12-.02 2.9-.69 3.76-.95a.53.53 0 00-.31-1c-.83.25-3.67.92-3.7.93a.53.53 0 00.13 1.04"/><path id="bh" d="M282.6 397.8a.53.53 0 00.38-.88c-1.83-2.04-13-4.86-18.06-2.8a.53.53 0 00.4.97c4.75-1.93 15.45.95 16.88 2.54.1.11.25.17.4.17"/><path id="bi" d="M254.35 433.55h.06c.3-.04.5-.3.47-.6a191 191 0 00-.37-2.79c-.2-1.45-.4-2.95-.54-4.42a.53.53 0 00-1.05.1c.15 1.5.35 3 .55 4.46l.36 2.79c.03.26.26.46.52.46"/><path id="bj" d="M292.13 388c.12 0 .24-.04.33-.12a11.52 11.52 0 004.23-8.35 9.23 9.23 0 00-2.69-7.1.53.53 0 00-.74.75 8.2 8.2 0 012.37 6.3 10.46 10.46 0 01-3.84 7.59.53.53 0 00.34.93"/><path id="bk" d="M347.84 429.27c.13 0 .26-.05.36-.15 4.06-3.87 5.76-9.9 5.83-10.15a.53.53 0 00-1.01-.28c-.02.06-1.7 6-5.55 9.67a.53.53 0 00.37.9"/><path id="bl" d="M339.04 356c-.17-1.08-1.78-.86-1.66.22.15 1.38.3 3 .87 4.3.23.5 1 .4 1.08-.15.22-1.4-.07-3-.29-4.38"/><path id="bm" d="M344.6 355.69c-.32-1.15-2.13-.42-1.73.74.42 1.27.6 2.65 1.17 3.85a.63.63 0 001.18-.16c.28-1.48-.2-3.02-.61-4.43"/><path id="bn" d="M351.88 355.19c-.61-.66-1.53-.36-1.75.47-.19.72.2 1.52.4 2.22.17.7.28 1.39.74 1.97.32.4.97.31 1.17-.16.3-.72.19-1.47.1-2.23-.1-.75-.12-1.7-.66-2.27"/><path id="bo" d="M365.18 357.4c-.1-.82-.12-1.86-.78-2.43-.24-.21-.63-.19-.8.11-.4.76-.13 1.68-.04 2.49.08.74-.09 1.7.67 2.1.17.1.39.1.55 0 .77-.51.49-1.48.4-2.28"/><path id="bp" d="M368.62 355.3c-.48.36-.34 1.01-.3 1.54.06.72.09 1.43.12 2.15.04.83 1.47.85 1.48 0 .01-.5-.08-4.56-1.3-3.69"/><path id="bq" d="M373.43 355.42c-.17-.68-.72-.38-.98-.04-1.1 1.39.86 5.12 1.3 2.32.11-.73-.15-1.58-.32-2.28"/><path id="br" d="M307.66 308.05c-.42-.25-.95-.4-1.34-.64-.34-.2-.73-.52-1.08-.77-.76-.54-1.75.23-1.41 1.1.24.62.66 1.1 1.19 1.5.48.38 1.17.8 1.8.84.5.03 1-.2 1.2-.69.18-.42.07-1.09-.36-1.34"/><path id="bs" d="M305.4 311.96c-.4-.05-.8-.23-1.1-.51-.35-.31-.56-.75-.98-.98-.2-.1-.52 0-.64.18-.44.66-.05 1.55.42 2.1.54.62 1.23 1 2.04 1.13a.98.98 0 001.1-1.09.99.99 0 00-.84-.83"/><path id="d" d="M341.6 540.18h33.07v45.13H341.6z"/><path id="bu" d="M343.06 540.57c.4-.77.33-.3.34.52.04 3.83-.46 9 1.28 12.45 1.6 3.16 4.57 5.3 5.33 8.78.8 3.62 1.65 7.29 3.1 10.7 3.02 7.08 10.98 8.8 21.56 7.33-.4 1.6-1.37 3.94-2.97 4.43-5.74 1.77-15.32-1.1-19.47-5.95-2.11-2.48-3.05-5.73-3.96-8.78-1.3-4.36-2.5-8.75-3.73-13.13-2.86-4.92-4.15-11.24-1.48-16.35"/><path id="bv" d="M316.47 545.47c-8.9-1.09-13.06-2.47-17.64-14.13-2.25-5.88-.62-9.51-.62-9.51l4.48 11.82 4.37 6.53 8.32 2.63z"/><clipPath id="f"><use xlink:href="#a"/></clipPath><clipPath id="T"><use xlink:href="#b"/></clipPath><clipPath id="aB"><use xlink:href="#c"/></clipPath><clipPath id="bt"><use xlink:href="#d"/></clipPath></defs><use fill="#5eb2fc" xlink:href="#e" transform="translate(-247 -266)"/><g clip-path="url(#f)" transform="translate(-247 -266)"><use fill="#0161cd" xlink:href="#g"/></g><use fill="#92cdfa" xlink:href="#h" transform="translate(-247 -266)"/><use fill="#5eb2fc" xlink:href="#i" transform="translate(-247 -266)"/><use fill="#113255" xlink:href="#j" transform="translate(-247 -266)"/><use fill="#f59f26" xlink:href="#k" transform="translate(-247 -266)"/><use fill="#92cdfa" xlink:href="#l" transform="translate(-247 -266)"/><use fill="#5eb2fc" xlink:href="#m" transform="translate(-247 -266)"/><use fill="#92cdfa" xlink:href="#n" transform="translate(-247 -266)"/><use fill="#5eb2fc" xlink:href="#o" transform="translate(-247 -266)"/><use fill="#92cdfa" xlink:href="#p" transform="translate(-247 -266)"/><use fill="#5eb2fc" xlink:href="#q" transform="translate(-247 -266)"/><use fill="#143b63" xlink:href="#r" transform="translate(-247 -266)"/><use fill="#113255" xlink:href="#s" transform="translate(-247 -266)"/><use fill="#143b63" xlink:href="#t" transform="translate(-247 -266)"/><use fill="#113255" xlink:href="#u" transform="translate(-247 -266)"/><use fill="#92cdfa" xlink:href="#v" transform="translate(-247 -266)"/><use fill="#5eb2fc" xlink:href="#w" transform="translate(-247 -266)"/><use fill="#143b63" xlink:href="#x" transform="translate(-247 -266)"/><use fill="#113255" xlink:href="#y" transform="translate(-247 -266)"/><use fill="#143b63" xlink:href="#z" transform="translate(-247 -266)"/><use fill="#113255" xlink:href="#A" transform="translate(-247 -266)"/><use fill="#fcd250" xlink:href="#B" transform="translate(-247 -266)"/><use fill="#eb7d16" xlink:href="#C" transform="translate(-247 -266)"/><use fill="#eb7d16" xlink:href="#D" transform="translate(-247 -266)"/><use fill="#eb7d16" xlink:href="#E" transform="translate(-247 -266)"/><use fill="#eb7d16" xlink:href="#F" transform="translate(-247 -266)"/><use fill="#eb7d16" xlink:href="#G" transform="translate(-247 -266)"/><use fill="#eb7d16" xlink:href="#H" transform="translate(-247 -266)"/><use fill="#eb7d16" xlink:href="#I" transform="translate(-247 -266)"/><use fill="#eb7d16" xlink:href="#J" transform="translate(-247 -266)"/><use fill="#eb7d16" xlink:href="#K" transform="translate(-247 -266)"/><use fill="#eb7d16" xlink:href="#L" transform="translate(-247 -266)"/><use fill="#eb7d16" xlink:href="#M" transform="translate(-247 -266)"/><use fill="#eb7d16" xlink:href="#N" transform="translate(-247 -266)"/><use fill="#92cdfa" xlink:href="#O" transform="translate(-247 -266)"/><use fill="#92cdfa" xlink:href="#P" transform="translate(-247 -266)"/><use fill="#143b63" xlink:href="#Q" transform="translate(-247 -266)"/><use fill="#113255" xlink:href="#R" transform="translate(-247 -266)"/><use fill="#113255" xlink:href="#S" transform="translate(-247 -266)"/><g clip-path="url(#T)" transform="translate(-247 -266)"><use fill="#92cdfa" xlink:href="#U"/></g><use fill="#5eb2fc" xlink:href="#V" transform="translate(-247 -266)"/><use fill="#5eb2fc" xlink:href="#W" transform="translate(-247 -266)"/><use fill="#143b63" xlink:href="#X" transform="translate(-247 -266)"/><use fill="#113255" xlink:href="#Y" transform="translate(-247 -266)"/><use fill="#0161cd" xlink:href="#Z" transform="translate(-247 -266)"/><use fill="#0353a7" xlink:href="#aa" transform="translate(-247 -266)"/><use fill="#0353a7" xlink:href="#ab" transform="translate(-247 -266)"/><use fill="#0353a7" xlink:href="#ac" transform="translate(-247 -266)"/><use fill="#143b63" xlink:href="#ad" transform="translate(-247 -266)"/><use fill="#113255" xlink:href="#ae" transform="translate(-247 -266)"/><use fill="#fcd250" xlink:href="#af" transform="translate(-247 -266)"/><use fill="#c8e7fa" xlink:href="#ag" transform="translate(-247 -266)"/><use fill="#143b63" xlink:href="#ah" transform="translate(-247 -266)"/><use fill="#92cdfa" xlink:href="#ai" transform="translate(-247 -266)"/><use fill="#5eb2fc" xlink:href="#aj" transform="translate(-247 -266)"/><use fill="#5eb2fc" xlink:href="#ak" transform="translate(-247 -266)"/><use fill="#5eb2fc" xlink:href="#al" transform="translate(-247 -266)"/><use fill="#fcd250" xlink:href="#am" transform="translate(-247 -266)"/><use fill="#0161cd" xlink:href="#an" transform="translate(-247 -266)"/><use fill="#5eb2fc" xlink:href="#ao" transform="translate(-247 -266)"/><use fill="#92cdfa" xlink:href="#ap" transform="translate(-247 -266)"/><use fill="#1273eb" xlink:href="#aq" transform="translate(-247 -266)"/><use fill="#0161cd" xlink:href="#ar" transform="translate(-247 -266)"/><use fill="#c8e7fa" xlink:href="#as" transform="translate(-247 -266)"/><use fill="#92cdfa" xlink:href="#at" transform="translate(-247 -266)"/><use fill="#f9fafb" xlink:href="#au" transform="translate(-247 -266)"/><use fill="#5eb2fc" xlink:href="#av" transform="translate(-247 -266)"/><use fill="#0161cd" xlink:href="#aw" transform="translate(-247 -266)"/><use fill="#5eb2fc" xlink:href="#ax" transform="translate(-247 -266)"/><use fill="#92cdfa" xlink:href="#ay" transform="translate(-247 -266)"/><use fill="#5eb2fc" xlink:href="#az" transform="translate(-247 -266)"/><use fill="#0161cd" xlink:href="#aA" transform="translate(-247 -266)"/><g clip-path="url(#aB)" transform="translate(-247 -266)"><use fill="#5eb2fc" xlink:href="#aC"/></g><use fill="#92cdfa" xlink:href="#aD" transform="translate(-247 -266)"/><use fill="#0353a7" xlink:href="#aE" transform="translate(-247 -266)"/><use fill="#0353a7" xlink:href="#aF" transform="translate(-247 -266)"/><use fill="#0353a7" xlink:href="#aG" transform="translate(-247 -266)"/><use fill="#eb7d16" xlink:href="#aH" transform="translate(-247 -266)"/><use fill="#eb7d16" xlink:href="#aI" transform="translate(-247 -266)"/><use fill="#eb7d16" xlink:href="#aJ" transform="translate(-247 -266)"/><use fill="#eb7d16" xlink:href="#aK" transform="translate(-247 -266)"/><use fill="#eb7d16" xlink:href="#aL" transform="translate(-247 -266)"/><use fill="#eb7d16" xlink:href="#aM" transform="translate(-247 -266)"/><use fill="#eb7d16" xlink:href="#aN" transform="translate(-247 -266)"/><use fill="#eb7d16" xlink:href="#aO" transform="translate(-247 -266)"/><use fill="#eb7d16" xlink:href="#aP" transform="translate(-247 -266)"/><use fill="#eb7d16" xlink:href="#aQ" transform="translate(-247 -266)"/><use fill="#eb7d16" xlink:href="#aR" transform="translate(-247 -266)"/><use fill="#eb7d16" xlink:href="#aS" transform="translate(-247 -266)"/><use fill="#eb7d16" xlink:href="#aT" transform="translate(-247 -266)"/><use fill="#eb7d16" xlink:href="#aU" transform="translate(-247 -266)"/><use fill="#eb7d16" xlink:href="#aV" transform="translate(-247 -266)"/><use fill="#5eb2fc" xlink:href="#aW" transform="translate(-247 -266)"/><use fill="#0353a7" xlink:href="#aX" transform="translate(-247 -266)"/><use fill="#5eb2fc" xlink:href="#aY" transform="translate(-247 -266)"/><use fill="#5eb2fc" xlink:href="#aZ" transform="translate(-247 -266)"/><use fill="#5eb2fc" xlink:href="#ba" transform="translate(-247 -266)"/><use fill="#5eb2fc" xlink:href="#bb" transform="translate(-247 -266)"/><use fill="#0353a7" xlink:href="#bc" transform="translate(-247 -266)"/><use fill="#5eb2fc" xlink:href="#bd" transform="translate(-247 -266)"/><use fill="#5eb2fc" xlink:href="#be" transform="translate(-247 -266)"/><use fill="#5eb2fc" xlink:href="#bf" transform="translate(-247 -266)"/><use fill="#5eb2fc" xlink:href="#bg" transform="translate(-247 -266)"/><use fill="#5eb2fc" xlink:href="#bh" transform="translate(-247 -266)"/><use fill="#5eb2fc" xlink:href="#bi" transform="translate(-247 -266)"/><use fill="#0353a7" xlink:href="#bj" transform="translate(-247 -266)"/><use fill="#0353a7" xlink:href="#bk" transform="translate(-247 -266)"/><use fill="#69e781" xlink:href="#bl" transform="translate(-247 -266)"/><use fill="#69e781" xlink:href="#bm" transform="translate(-247 -266)"/><use fill="#69e781" xlink:href="#bn" transform="translate(-247 -266)"/><use fill="#ec3a3b" xlink:href="#bo" transform="translate(-247 -266)"/><use fill="#ec3a3b" xlink:href="#bp" transform="translate(-247 -266)"/><use fill="#ec3a3b" xlink:href="#bq" transform="translate(-247 -266)"/><use fill="#c8e1bd" xlink:href="#br" transform="translate(-247 -266)"/><g transform="translate(-247 -266)"><use fill="#ec3a3b" xlink:href="#bs"/></g><g><g clip-path="url(#bt)" transform="translate(-247 -266)"><use fill="#5eb2fc" xlink:href="#bu"/></g></g><g transform="translate(-247 -266)"><use fill="#5eb2fc" xlink:href="#bv"/></g></svg>