<svg xmlns="http://www.w3.org/2000/svg" xmlns:xlink="http://www.w3.org/1999/xlink" width="162" height="316"><defs><path id="ao" d="M1192.64 574.2c-.26.76-.09 1.52-1.15 1.77.8-.2-1.97-.6-1.7-.62h.12-.13a2 2 0 00-1.31.34c-1.08.68-1.14 2.68-2.38 2.16-.95-.4-1.16-1.68-2.47-1.5-.87.12-1.13.82-1.75 1.36-2.47 2.12-5.48.37-7.2-1.84-.47-.6-.77-1.2-.95-1.77 1.74-2.32 4.24-3.95 4.65-3.87.35.08 1.36 1.98 2.02 3.3l.4-1.97 3.05 1.64 2.17-.53-.09-.86 6.84-.78c0 .62.06 1.32.15 2.04-.07.41-.15.8-.27 1.13"/><path id="d" d="M1156.3 653.48c1.35-.37 4.8 1.1 6.07 1.73 3.23 1.58 4.28 7.92 5.31 10.52a28.07 28.07 0 005.74 8.94 57.54 57.54 0 017.55 9.63c3.3 5.57-1.31 15.9-8.44 10.4-1.4-1.09-.69-1.82 1.06-1.81 9.23.07 4.79-8.29 1.54-11.78-2.13-2.3-4.37-4.42-6.29-6.9a46.4 46.4 0 01-8.39-16.96c-.26-.8-4.82-3.6-4.14-3.77"/><path id="f" d="M1095.24 511.19l9.49 8.7-.13 15.68-36.98 17.35s-.23.07-.6.15a16.95 16.95 0 00-4.16-6.99c10.22-8.91 29.62-29.75 32.38-34.89"/><path id="g" d="M1075.98 533.4a20.55 20.55 0 002.9 2.85c.5.4 1.36.59 1.82 0 2.64-3.33 4.1-7.59 4.77-11.75l.22-1.48c4.73-5.27 8.45-9.79 9.55-11.83l9.49 8.7-.14 15.68-36.98 17.35s-.23.07-.6.15c-.88-2.81-2.31-5.13-4.15-6.99a237.9 237.9 0 0013.12-12.68"/><path id="h" d="M1067 553.07c-1.73.35-6.73.92-8.17-3.78 1.05-.7 2.43-1.8 4.03-3.2a16.96 16.96 0 014.15 6.98"/><path id="i" d="M1143.04 422.97c12.25-6.6 20.92-.5 23.2 9.36 2.3 9.86 2.24 35.3-1.2 47.75-3.46 12.45-11.44 25.4-14.24 36.97-2.8 11.57-20.19 17.6-21.76 8.63-1.57-8.98 1.74-94.79 14-102.71"/><path id="j" d="M1160.37 486.28c.32-6 .75-11.98 1.14-17.97.69-10.62 1.6-21.46.1-32.03-.06-.46-.6-.76-1.02-.77-5.73-.18-12.16-1.07-16.13-5.67a12.57 12.57 0 01-2.75-5.66c.43-.5.88-.92 1.33-1.21 12.26-6.6 20.93-.5 23.21 9.36 2.29 9.86 2.24 35.3-1.21 47.74a105.18 105.18 0 01-5.05 13.57c.2-2.45.25-4.91.38-7.36"/><path id="k" d="M1061.18 547.3c6-6.5 8.92-15.2 9.97-13.76 1.3 1.77 6.66 8 15.4 14.55 2.17 1.67-18.4 5.56-22 7.51-.96-4-.66-6.05-3.37-8.3"/><path id="l" d="M1058.19 549.36c1.56-.95 2.98-2.01 4.26-3.09a15.46 15.46 0 012.69 8.89c-.34.13-.55.27-.59.44-.6 2.4-1.38 3.73-4.48 4.98-3.1 1.25-2.39 2.41-3.72 5.52 2.7 1.53 1.7 3.5-.27 3.83 2.02 2.31-.57 4.05-4.54 2.87.7 5.22-2.26 4.7-3.74 2.21-.55 5.86-2.28 5.9-3.75 4.86-1.47-1.03-1.6-11.67 2.16-19.77 3.77-8.1 3.58-5.64 11.98-10.74"/><path id="m" d="M1081.46 544.01c1.55 1.32 3.24 2.69 5.1 4.08 2.16 1.67-18.4 5.57-22 7.52-.2-.8-.87-2-1.14-2.73 2.51-5.05 12.96-6.25 18.04-8.87"/><path id="n" d="M1045.15 570.05a23.87 23.87 0 018.96-12.37 17.7 17.7 0 00-1.44 6.16c-.12 2.44 1.52 3.86 3.37 2.08.23-.21.45-.46.66-.72l-.35.9c2.7 1.53 1.7 3.5-.27 3.83 2.02 2.31-.57 4.05-4.54 2.87.69 5.22-2.26 4.7-3.74 2.21-.55 5.86-2.29 5.9-3.76 4.86-.4-.28-.69-1.26-.84-2.7.61-2.38 1.2-4.77 1.95-7.12"/><path id="o" d="M1048.77 575.59a.5.5 0 00.5-.49c.05-2.9-.09-4.8-.4-5.63.36-.54 1.38-2 3.23-4.06a.5.5 0 00-.74-.66 33.56 33.56 0 00-3.49 4.43.5.5 0 00.1.64c.23.37.34 3.03.3 5.26 0 .28.21.5.49.5z"/><path id="p" d="M1051.64 573.95h.07a.5.5 0 00.43-.57l-.31-2.2.84-4.24a.5.5 0 10-.98-.18c-.28 1.5-.85 4.3-.85 4.3a.58.58 0 000 .16l.31 2.3a.5.5 0 00.5.43"/><path id="q" d="M1055.74 571c.04 0 .1 0 .14-.02a.5.5 0 00.33-.62c-.07-.22-.69-2.2-1.98-2.88a.5.5 0 00-.67.2.5.5 0 00.2.68c.8.42 1.35 1.8 1.5 2.29a.5.5 0 00.48.35"/><path id="r" d="M1143.38 653.98c4.39.83 8.99-2.46 14.26 0 5.26 2.45 6 10.88 8.66 14.64 2.66 3.77 6.81 8.67 9.35 11.71 9.17 10.97 3.58 17.6-1.86 15.16-3.28-1.46-12.7-10.84-15.61-12.81-2.92-1.97-14.32-5.01-16.14-14.06-1.82-9.04-4.94-14.78 1.34-14.64"/><path id="s" d="M1142.61 666.04c2.93 1.95 6.15 4.37 9.57 5.52 2.36 1.47 4.45 3.29 6.67 5.08 1.44 1.15 3.1 2.15 4.33 3.5 1.2 1.36 2.11 3 3.07 4.53 1.6 2.56 2.88 5.5 5.06 7.58 2.08 1.98 3.29 2.9 5.3 3.7-5.17 1.78-15.57-11.33-18.43-13.27-2.92-1.96-14.31-5.01-16.13-14.06a85.68 85.68 0 00-.79-3.48l1.35.9"/><path id="t" d="M1106.73 471.19c-8.06-.68-15.15 4.6-15.33 9.99-.18 5.39 2.26 17.64 2.26 17.64l13.95-12.4z"/><path id="u" d="M1108.09 467.25c-6-4.53-19.69-.94-20.96 0-1.26.94 4.73 2.63 7.1 3.11 2.38.48 2.95 4 4.44 5.39 1.5 1.38 16.25-3.65 9.42-8.5"/><path id="v" d="M1091.95 469.8c-2.63-.72-5.77-1.86-4.82-2.56.66-.49 4.7-1.7 9.25-2.1-.86 1.77-2.52 3.33-4.43 4.66"/><path id="w" d="M1099.2 469.47c-5.7 1.75-9.24 7.82-8.1 11.22 1.15 3.4 13.2-7.36 13.2-7.36z"/><path id="x" d="M1099.09 429.81c.29 1.38-3.18 4.95-5.23 5.86-2.55-1.64-10.82-10.66-10.82-10.66l1.24-1.64z"/><path id="y" d="M1080.39 425.66a3.33 3.33 0 01-.63-2.92c.9-3.46 7.21-3.49 7.05.47-.1 2.2-2.74 3.98-4.82 3.47a2.96 2.96 0 01-1.6-1.02"/><path id="z" d="M1087 624.8c-.89 7.36-2.04 15.31 6.25 30.5 0 0 6.91 38.47-7.3 21.63-8.82-10.44-17.59-26.93-25.23-42.02 6.85-3.52 13.68-7.27 21.72-8.6 1.63-.28 3.15-.79 4.56-1.51"/><path id="A" d="M1090.23 664.07a936.56 936.56 0 01-6.7-29.02c-.12-.56-.84-1-1.4-.8-3.7 1.41-7.69 2.33-11.5 3.38-2.53.69-5.06 1.31-7.63 1.74l-2.28-4.46c6.85-3.52 13.68-7.27 21.72-8.6 1.63-.28 3.15-.79 4.56-1.51-.89 7.36 2.76 29.87 7.69 30.07 0 0 2.06 19.93-1.05 25.08-.71-5.4-2.14-10.82-3.41-15.88"/><path id="a" d="M1042 577.39h45.47v57.52H1042z"/><path id="C" d="M1050.1 580.31c9.4-8.24 19.63 1.48 32.34 22.48 5.9 9.74 5.33 15.65 4.56 22.01a15.54 15.54 0 01-4.56 1.5c-8.04 1.34-14.87 5.09-21.72 8.6-4.69-9.25-8.95-17.98-12.55-24.46-9.45-17.05-7.45-21.89 1.94-30.13"/><path id="D" d="M1070.95 625.24c2.82-1.07 7.11-1.47 9.38-3.6 4.3-4.05-5.4-12.91-7.96-15.44-7.78-7.66-17.13-13.62-26.8-18.6-.51-.26-1.03-.5-1.55-.77 1.38-2.13 3.44-4.19 6.1-6.52 9.38-8.24 19.61 1.48 32.33 22.48 5.89 9.74 5.32 15.65 4.56 22.01a15.6 15.6 0 01-4.56 1.5c-8.04 1.34-14.87 5.09-21.72 8.6l-2.19-4.33a165.8 165.8 0 0112.41-5.33"/><path id="E" d="M1087.45 619.53c-2.03 4.62-24.79 11.72-26.49 12.1-1.7.38-4.35 4.01-1.24 5.73 3.12 1.72 2.83 1.01 2.83 1.01s18.15-6.12 22.2-8.51c4.07-2.4 6.06-7.83 2.7-10.33"/><path id="F" d="M1083.56 558.4c4.13-5.44 5.68-24.63 19.06-26.16 9.87-1.13 27.6 16.3 31.08 32.8-3.42 5.47-8.77 10-13.51 13.9-7.27 5.95-14.33 12.24-22.7 16.65-9.55 5.03-19.8 7.54-30.61 6.74-1.42-.1-2.83-.26-4.23-.45a62.67 62.67 0 01-5.65-2.07c-11.2-4.41-14.9-11.06-11.52-14.93 13-16.37 34.84-24.7 38.08-26.48"/><path id="G" d="M1120.18 578.93c-7.26 5.96-14.32 12.25-22.68 16.66a65.52 65.52 0 01-4.17 2c4.19-3.84 7.22-8.96 7.9-14.64 1.34-10.97-5.99-22.39-15.71-28.4 3.04-7.64 6-21.04 17.1-22.3 9.87-1.14 27.6 16.29 31.07 32.8-3.42 5.45-8.77 10-13.5 13.88"/><path id="H" d="M1089.37 542.36c-2.31 8-2.12 14.95 0 18.1 2.12 3.14 17.77 10.85 20.1 28.96 2.33 18.12 40.05-20.95 40.05-20.95l-12.48-36.12z"/><path id="I" d="M1114.9 575.41c3-2.19 5.19-7.37 6.23-10.98.05-.06.1-.13.13-.21 2.56-7.17 2.9-15.92 2.22-23.42a54.78 54.78 0 00-.75-5.45l14.31-3 12.48 36.12s-37.72 39.06-40.05 20.95a33.52 33.52 0 00-7.25-16.84c3.84 3.98 8.54 5.85 12.67 2.83"/><path id="J" d="M1135 635.52c4.45 7.97 3.36 16.05 10.58 20 7.29 3.97 8.37 6.6 7.8 11.67-1 8.72-3.94 7.4-22.81-1.92-4.64-2.29-8.1-3.98-10.92-5.43 9.86-2.63 15.45-13.35 15.35-24.32"/><path id="K" d="M1134.05 663.73c-.43.9-.87 1.76-1.32 2.6l-2.16-1.06c-4.64-2.29-8.1-3.98-10.92-5.43 9.86-2.63 15.45-13.35 15.35-24.32 2.56 4.57 3.29 9.18 4.8 13.03-.97 5.38-3.72 10.93-5.75 15.18"/><path id="L" d="M1131.87 659.14c3.7 2.11 7.2 4.54 10.75 6.9 2.92 1.94 6.14 4.37 9.56 5.52l.05.03c-2 3.3-7.07.87-21.66-6.32-4.64-2.3-8.1-3.98-10.92-5.44 2.64-.7 4.97-1.99 6.97-3.7 1.81 1.1 3.65 2.09 5.25 3"/><path id="M" d="M1099.48 623.85c4.45-5.76 21.37-3.51 31.17 6a24.32 24.32 0 014.35 5.66c.09 10.97-5.5 21.69-15.36 24.32-8.67-4.46-11.44-6.73-24.46-17.33-3.69-2.96-.16-12.89 4.3-18.65"/><path id="N" d="M1110.78 635.42a40.33 40.33 0 01-6.6-1.42 14.2 14.2 0 01-7.01-6.64c.71-1.26 1.5-2.45 2.3-3.5 4.44-5.73 21.2-3.53 31.03 5.86a27.02 27.02 0 01-9.13 4.68 27.16 27.16 0 01-10.6 1.02"/><path id="O" d="M1096.27 636.18c1.72.4 3.63.59 5.37.32 1.77-.27 3.09-1.69 4.74-2.03 2.34-.47 3.23 2.95 4.37 4.68a86.51 86.51 0 004.01 5.5c1.73 2.23 3.6 5.8 6.48 6.72 4.46 1.42 7.32-4.17 8.74-7.4 1.6-3.65 3.09-8.07 2.49-12.14a24.38 24.38 0 012.53 3.7c.09 10.96-5.5 21.68-15.36 24.3-8.67-4.45-11.45-6.72-24.46-17.32-1.63-1.3-1.85-3.98-1.2-7.06.74.3 1.5.55 2.3.73"/><path id="P" d="M1090.79 614.84c4.6-10.7 19.08-34.24 23.05-44.61 3.97-10.38 3.04-11.7-.52-22.74 1.84-10.1 8.6-16.47 15.47-19.94l1.35.06a1 1 0 00.46.63c.76.44 1.6.63 2.48.73.17.42.56.78 1.04.81 1.74.12 3.46.03 5.18.07 1.27.42 2.53.99 3.71 1.66 3.92 2.68 7.21 4.89 9.47 9.39a70.77 70.77 0 014.86 12.99 56.06 56.06 0 01-4.92 31.5c-3.1 6.6-8.11 11.05-11.92 17.13-2.19 3.5-3.94 7.33-5.86 11-.68 1.3-1.36 2.59-2.06 3.88-1.9 2.32-3.23 4.82-7.45 9.7-14.47 18.9-24.8 19.73-29.95 15.4-5.14-4.32-9-16.96-4.4-27.66"/><path id="Q" d="M1128.79 527.55c1.5.06 2.99.12 4.48.2l.21.01c-.97.54-.33 1.96.63 2.02 2.89.2 5.78-.7 8.49.42a20.13 20.13 0 016.48 4.5c4.14 4.13 6.35 9.28 7.59 14.88.53 2.4.82 4.95 1 7.42a57 57 0 01.06 7.71 61.55 61.55 0 00-8.82-18.24c-4.43-6.27-10.07-10.67-17-13.96a68.48 68.48 0 00-6.83-2.78 32.54 32.54 0 013.7-2.18"/><path id="R" d="M1096.28 636.17c1.71.4 3.62.59 5.37.32 1.77-.27 3.08-1.69 4.74-2.02 2.34-.48 3.22 2.94 4.36 4.67.34.51.68 1.02 1.04 1.52-7.59 5.3-13.22 4.7-16.6 1.85-2.26-1.9-4.26-5.39-5.42-9.61a15.97 15.97 0 006.5 3.28"/><path id="S" d="M1144.91 521.86s1.38 2.13 2.4 4.2c1.03 2.06-15.78 35.69-48.55 34.4-6.9-.4-10.56-4.84-11.98-9.68-.58-3.54-.2-9.66 1.16-11.72 3.77-4.81 42.58-14.4 42.58-14.4z"/><path id="T" d="M1088.94 499.3c-.2-.7-.33-1.39-.39-2.07.1-1.02.33-2.08.73-3.18 2.26-6.16 12.34-18.54 12.21-22.86-.13-4.33 19.47-21.64 38.2-9.5 4.96 2.1 10.13 14.27 10.08 24.7-.34 2.67-.8 5.34-1.33 8-3.46 10.21.77 2.63.26 4.17-.2.63-2.03 5.89-3.39 9.91-.73 3.28-1.45 6.56-2.11 9.85-.48 2.37-1.1 4.85-1.52 7.32-4.77 5-11.87 10.37-20.26 14.4-12.57 6.04-22.96 6.33-29.27 2.73-.6-1.2-1.14-2.43-1.59-3.7-.3-4.24-.47-8.47.29-12.68.82-4.6 2.82-9.1 2.35-13.84-.47-4.8-2.97-8.72-4.26-13.25"/><path id="U" d="M1136.55 505.9c-2.83-6.68-7.54-12.2-9.13-19.44 2.52-8.64 12.91-10.47 21.3-8.9a38.92 38.92 0 011.06 8.82c-.34 2.68-.8 5.35-1.33 8-3.46 10.22.76 2.63.26 4.18-.2.63-2.04 5.88-3.39 9.9a460.5 460.5 0 00-2.11 9.86c-.48 2.37-1.1 4.84-1.52 7.32a44.37 44.37 0 01-11.87 10.08c5.72-8.96 11-19.74 6.73-29.82"/><path id="V" d="M1126.7 495.9c1.46 4.38 5.04 6.9 9.45 7.85 1.42.3 4.4.84 6.5.3 3.45-.5 5.98-3.57 6.62-6.94.85-4.45-1.38-8.94-3.73-12.56-2.32-3.57-5.77-7.9-10.29-8.53-9.37-1.31-10.51 13.97-8.55 19.88"/><path id="W" d="M1092.27 508.28c-.66-2.04-1.53-4-2.31-6 .71.06 1.99.3 2.2.37 7.33 2.78 7.05-1 10.9-3.1 5.53-3.02 13.8 2.1 19.34-.83-2 3.74-4.97 6.9-9.42 7.5-2.93.41-5.9-.44-8.85-.28-3.18.17-6.13 1.32-9.22 1.96-1.02.22-1.87.39-2.64.38"/><path id="X" d="M1133.98 637.18c-1.08 11.66-12.69 22.05-18.46 20.02-2.35-1.15-4.4-2.24-4.4-2.24.77 4.2 4.18 9.5 13.86 6.1 9.67-3.4 11.84-9.1 13.04-18 1.63-12-7.36-13.2-7.36-13.2l1.3 1.41a7.7 7.7 0 012.02 5.91"/><path id="Y" d="M1088.3 657.8a6.2 6.2 0 014.06-2.8 9.7 9.7 0 011.55-.21c3.05.68 6.26-3.26 10.75 1.29 5.1 5.16.51 11.74 2.45 17.64 1.94 5.9 15.38 16.66 14.98 25.93-.4 9.27-4.86 9.43-11.4.66-6.56-8.77-14.56-8.12-21.4-20.12-4.71-8.25-3.7-17.47-1-22.4"/><path id="Z" d="M1097.83 680.4c5.1-.33 10.04.32 14.89 1.56 4.4 5.43 9.62 11.85 9.36 17.69-.4 9.27-4.85 9.43-11.4.65-6.27-8.39-13.86-8.16-20.5-18.63 2.5-.7 5.07-1.11 7.65-1.28"/><path id="aa" d="M1094.66 685.91c2.88 2.05 5.82 4 8.72 6.02 2.85 2 5.27 4.55 8.17 6.5 1.85 1.24 4.22 2.58 6.42 1.34 1.97-1.1 2.77-3.6 2.87-5.85a13.15 13.15 0 011.24 5.73c-.4 9.28-4.85 9.44-11.4.66-5.83-7.8-12.82-8.16-19.11-16.61 1.09.79 2.13 1.53 3.1 2.21"/><path id="ab" d="M1109.88 468.6c9.5.35 21.52-5.27 28.5-12.3 6.98-7.05 13.54-23.63 1.98-38.63-11.56-15-29.16-13.38-38.87-7.87-12.12 6.89-19.4 26.35-11.77 40.22 7.62 13.87 13.38 19.78 20.16 18.58"/><path id="ac" d="M1115.65 468.16a118.7 118.7 0 006.78-5.99c3.87-3.69 7.45-7.64 10.71-11.88 3.01-3.9 5.42-8.52 8.94-12.02.56 1.48.3 3.71.26 5.01-.1 3.1-.49 6.19-1.05 9.23l-.06.3a25.34 25.34 0 01-2.85 3.49c-5.62 5.67-14.52 10.41-22.73 11.86"/><path id="ad" d="M1098 545.6a.5.5 0 00.45-.7l-.47-.96c-1.9-3.8-6.32-12.72-3.59-20.12a54.06 54.06 0 012.08-4.68c2.35-4.88 4.79-9.93 2.53-16.64-2.53-7.53-1.96-12.57 1.9-16.86 3.4-3.78 7.23-8.99 6.6-15.79a.51.51 0 00-.54-.45.5.5 0 00-.45.54c.6 6.42-3.08 11.4-6.35 15.04-4.13 4.58-4.76 9.92-2.1 17.83 2.13 6.33-.22 11.2-2.48 15.9a55.27 55.27 0 00-2.12 4.77c-2.88 7.8 1.68 16.98 3.63 20.9.18.36.34.67.46.94a.5.5 0 00.45.29"/><path id="ae" d="M1128.03 459.3c-4.42 3.64-18.18 11.9-28.52 5.07-1.6-1.76-1.59 2.64 2.61 4.62s15.86 3.65 24.7-5.63c9.7-10.17 1.21-4.06 1.21-4.06"/><path id="af" d="M1132.78 467.38c-5.2 3.68-8.18 23.71.5 23.53 10.35-.22 9.93-8.15 9.93-8.15s-2.9 11.27-11.01 11.78c-6.3.39-9.6-2.58-11.32-6.76-2.9-7.04.84-22.1 8.4-24.71 7.57-2.61 5.58 1.16 5.58 1.16l-1.59 2.24"/><path id="ag" d="M1174.51 511.2c-6.7-7.07-7.98-26.58-24.57-41.24-16.58-14.67-13.25-6.06-21.42-2.72-8.17 3.35-7.01 23.77.76 24.26 7.78.49 11.26 8.06 17.03 15.3 5.77 7.23 10.72 11.34 10.72 11.34l11.95 3.72z"/><path id="ah" d="M1152.2 472.09c.76 2.41.88 5.22.5 6.77-1.5 6.08-10.25 1.47-13.48-.45-4.6-2.75-9.02-5.96-13.18-9.34.7-.8 1.53-1.43 2.48-1.83 8.17-3.34 4.85-11.95 21.43 2.72.79.7 1.53 1.4 2.26 2.13"/><path id="ai" d="M1161.88 507.92c8.59-3.52 11.36 8.79 6.53 13.77l-11.37-3.54s-.82-.68-2.16-1.96c1.52-3.68 3.68-6.9 7-8.27"/><path id="aj" d="M1185.91 551.21c-2.67-29.85-9.96-46.73-20.88-41.24-10.92 5.48-10.01 12.74-3.34 23.49a473.43 473.43 0 0114.01 24.7z"/><path id="ak" d="M1175.7 558.16c-4.2 3.62-6.93 7.86-6.97 10.14-.03 2.28 1.96 5.83 4.44 6.38 2.48.55 5.74-3.55 6.07-4.4.33-.85 1.13-6.23 1.13-6.23z"/><path id="al" d="M1174.44 564.4c-.19.08-.26.22-.27.36-1.7.63-3.46 1.36-5.18 2.19.77-2.38 3.24-5.8 6.72-8.79l3.63 4.59c-1.64.52-3.34.92-4.9 1.65"/><path id="b" d="M1172.05 570.23h21.77v15.52h-21.77z"/><path id="an" d="M1172.31 575.93c1.2-3.16 5.51-5.8 6.06-5.7.36.07 1.36 1.75 2.02 2.92l.4-1.75 3.05 1.45 2.17-.46-.08-.77 6.84-.69c-.03 2.33 1.05 5.66 1.05 7.65 0 .88-1.36 1.57-2.86 2.05a5.19 5.19 0 01-4.19 3.32c-.13 1.22-2.68 1.8-5.27 1.8-1.13 0-1.87-.7-2.34-1.5-.24.04-.5.06-.79.04-4.2-.2-7.25-5.2-6.06-8.36"/><path id="e" d="M1067 553.07c-1.73.35-6.73.92-8.17-3.77a44.1 44.1 0 004.03-3.21 16.96 16.96 0 014.15 6.98"/><path id="ap" d="M1128.52 457.44c11.7-8.96 27.26-14.1 24.11-7.42-3.15 6.68-4.98 11.57-4.98 11.57s6.65 4.96 5.12 11.05c-2.28 9.04-14.1 4.25-24.25-3.5-5.35-4.27-1.03-10.92 0-11.7"/><path id="aq" d="M1136.95 458.37a82.06 82.06 0 019.85-7.06c.81-.5 1.63-.96 2.46-1.4.37-.02.71.02 1 .15.97.46 1.15 1.57 1.14 2.6-2.4 5.29-3.76 8.93-3.76 8.93s4.85 3.62 5.31 8.46c-1.19 1.76-4.03 2.16-6.57 1.64-2.92-.59-5.79-2.35-8.27-3.93a30.35 30.35 0 01-5.91-4.79l.63-.8c1.48-1.2 2.84-2.73 4.12-3.8"/><path id="ar" d="M1119.95 418.45c-6.83 8.67-27.79 22.02-28.4 1.44-9.47 14.68-7.45 32.3 7.15 41.8 14.6 9.48 35.9-7.82 32.36-25.08-3.53-17.26-11.11-18.16-11.11-18.16"/><path id="as" d="M1093.5 447.7a18.65 18.65 0 0014.23 4.92 18.65 18.65 0 0013.17-7.39c4.06-5.49 4.95-13.91 1.63-19.95-.14-.48-.3-.95-.43-1.44-.11-.36.35-.61.61-.36a15.19 15.19 0 013.69 6.38c1.41 4.34 2.4 8.99 1.86 13.46-1.29 7.27-5.85 13.55-13.29 15.74-8.47 2.24-20.53-1.13-21.5-11.4z"/><path id="at" d="M1136.62 416.45c2.15 1.66 3.2 3.2 5.08 6.94.18.75.32 1.07.62 2.34.36 1.53-.7 1.63-2.36 1.2-1.96-.5-3.35-2.77-4.25-4.4-.91-1.64-2.2-3.73-1.85-5.68.3-1.74 1.35-1.48 2.76-.4"/><path id="au" d="M1140.43 424.72c-1.4-.03-4.1-4.21-4.52-6.42 2.18-2.11 17.29-11.98 17.29-11.98l1.31 1.58z"/><path id="av" d="M1152.34 403.81a3.32 3.32 0 012.98.05c3.17 1.67 1.76 7.81-2.05 6.76-2.12-.58-3.26-3.57-2.3-5.48.31-.6.8-1.05 1.37-1.33"/><path id="aw" d="M1107.09 407.27c1.65-.6 4.27-1.32 5.91.72 3.14 3.9-4.64 7.12-8.62 6.55-5.87-.84-4.98-4.54 2.7-7.27"/><path id="ax" d="M1110.08 406.98c-.32-.19-5.91-12.23-6.43-12.52-.52-.3-1.92.47-1.92.47s.38 13.82.82 15.57c.43 1.74 3.7 2.54 5.72 1.62 2.03-.93 2.35-4.18 1.8-5.14"/><path id="ay" d="M1100.2 392.37c.2-.23.4-.44.63-.62a3.25 3.25 0 015.3 2.07c.43 2.87-3.2 6.97-5.88 4.22-1.45-1.5-1.31-4.08-.04-5.67"/><path id="az" d="M1140.45 534.28c4.91 4.82 11.17 16.24 8.26 22.01-2.9 5.77-12.1 11.42-15.45 12.35-3.35.93-7.36-21.76-7.36-21.76z"/><path id="aA" d="M1186.88 556.38s5.76 11.03 5.88 14.64c.11 3.62-18.72 7.19-19.86 5.26-1.08-1.84 2.84-13.87 1.79-18.14 4.83-.28 7.24-1.02 12.14-1.98l.05.23"/><path id="aB" d="M1160.68 534.12c12.45-10.29 29.27-5.13 27.13-1.46-2.1 3.62-2.35 17.06-.97 23.5-4.9.96-7.3 1.7-12.14 1.98-.05-.2-.1-.4-.18-.56-5.06-12.66-16.8-21.12-13.84-23.46"/><path id="aC" d="M1091.22 432.43c.11-.43.67-.52.89-.15a8.94 8.94 0 003.25 3.21 8.58 8.58 0 005.78.9c.37-.07.66.31.52.67a23.92 23.92 0 00-1.35 5.41c-.55 4.69.9 12.52 5 16.04.4.35.1 1-.41.89-3.06-.72-5.86-1.89-8.25-4.48-2.98-3.22-4.86-7.53-5.68-11.87-.71-3.77-.57-7.31.25-10.62"/><path id="aD" d="M1155.29 404.1c1.28.38 1.8 2.22.68 3.08-.1.08-.2.14-.31.2-.07.06-.15.13-.24.17-.46.26-.99.24-1.45.01a1.8 1.8 0 01-.96-1.57c-.05-1.22 1.06-2.25 2.28-1.89"/><path id="aE" d="M1101.84 392.14c.73-.41 1.72-.22 2.23.44.6.79.32 1.92-.51 2.43-.8.47-1.84.23-2.28-.6l-.05-.13a1.6 1.6 0 01.6-2.14"/><path id="aF" d="M1080.9 422.58c-.03-.54.27-1.01.71-1.26l.05-.06c.47-.36 1-.37 1.57-.3.33.06.71.44.76.77.12.8-.12 1.64-.84 2.03-.29.18-.64.26-1.03.18l-.12-.05a1.46 1.46 0 01-1.1-1.31"/><path id="aG" d="M1099.09 599.19a.5.5 0 00.41-.23c10.58-16.08 16.56-33.17 16.65-38.85a.5.5 0 00-.5-.5c-.25.02-.5.21-.5.49-.07 4.59-5.12 21.06-16.48 38.32a.5.5 0 00.42.77"/><path id="aH" d="M1144.36 530.5a.5.5 0 00.32-.88c-.67-.57-2.6-1.93-2.69-1.99a.5.5 0 00-.57.81c.02.02 1.98 1.4 2.62 1.94.1.08.2.11.32.11"/><path id="aI" d="M1140.15 537.07c.06 0 .1-.01.16-.03a.5.5 0 00.32-.63A10.69 10.69 0 001138 532a.5.5 0 00-.67.74 9.88 9.88 0 012.34 4c.07.2.27.34.47.34"/><path id="aJ" d="M1134.3 543.1h.1a.5.5 0 00.37-.6c-.6-2.5-2.05-5.98-2.11-6.13a.5.5 0 00-.92.39c.01.03 1.49 3.55 2.07 5.97a.5.5 0 00.48.38"/><path id="aK" d="M1126.5 549.76a.5.5 0 00.5-.42c.52-3.43-.9-8.11-.96-8.31a.5.5 0 00-.95.3c.02.04 1.42 4.65.92 7.86a.5.5 0 00.5.57"/><path id="aL" d="M1116.83 554.03h.07a.5.5 0 00.42-.56c-.28-2.07-1.18-8.32-1.18-8.32l-.98.14s.9 6.24 1.18 8.31a.5.5 0 00.49.43"/><path id="aM" d="M1105.49 558.58h.1a.5.5 0 00.38-.6c-.88-3.89-.9-8.33-.04-10.1a.5.5 0 10-.89-.44c-1.1 2.26-.84 7.23-.04 10.76a.5.5 0 00.49.38"/><path id="aN" d="M1095.69 557.92l.12-.01a.5.5 0 00.36-.6l-.29-1.11c-.75-2.9-1.47-5.63-.4-8.36a.5.5 0 00-.28-.65.5.5 0 00-.64.29c-1.19 3.02-.4 6.05.36 8.97.1.36.2.73.28 1.1a.5.5 0 00.49.37"/><path id="aO" d="M1090.5 555.31l.12-.01a.5.5 0 00.36-.6c-.81-3.33-.73-8.51-.2-9.07.24-.14.3-.44.15-.67a.5.5 0 00-.7-.15c-1.35.85-.84 7.54-.2 10.12a.5.5 0 00.47.38"/><path id="aP" d="M1078.64 605.21c1.62 0 3.04-.14 4.13-.48a.5.5 0 10-.3-.95c-4.72 1.44-17.72-1.01-23.98-3.9a.5.5 0 10-.41.9c4.71 2.18 14.19 4.43 20.56 4.43"/><path id="aQ" d="M1064.99 605.68c3.2 0 6.06-.45 6.24-.48a.5.5 0 00.41-.57.5.5 0 00-.57-.41c-.06 0-6.54 1.04-10.78 0a.5.5 0 00-.6.37.5.5 0 00.37.6c1.51.37 3.27.5 4.93.5"/><path id="aR" d="M1116.25 633.52h.05c3.39-.38 5.27-2.28 7.1-4.11.65-.66 1.32-1.34 2.05-1.93a.5.5 0 10-.62-.77c-.77.62-1.47 1.32-2.14 2-1.78 1.79-3.46 3.48-6.5 3.82a.5.5 0 00-.44.55.5.5 0 00.5.44"/><path id="aS" d="M1115.65 637.86a.5.5 0 00.32-.12c2.33-2 5.7-5.54 5.73-5.57a.5.5 0 00-.72-.68c-.03.03-3.36 3.54-5.66 5.5a.5.5 0 00.33.87"/><path id="aT" d="M1166.7 537.06a.5.5 0 00.32-.12c6.54-5.74 15.74-4.85 18.57-2.46a.5.5 0 10.64-.76c-2.95-2.49-12.63-3.87-19.86 2.47a.5.5 0 00-.05.7c.1.11.24.17.38.17"/><path id="aU" d="M1082.6 549.15a.5.5 0 00.24-.93c-3.52-1.92-11.86-11.87-11.94-11.97a.5.5 0 00-.76.63c.34.42 8.54 10.2 12.23 12.2a.5.5 0 00.23.07"/><path id="aV" d="M1064.55 555.73l.08-.01a.5.5 0 00.41-.57c-.01-.1-.42-2.48-1.99-3.43a.5.5 0 00-.52.85c1.18.71 1.53 2.72 1.53 2.74a.5.5 0 00.5.42"/><path id="aW" d="M1065.67 554.46c.2 0 .4-.13.47-.33.36-1.04-.5-3.23-.69-3.66a.5.5 0 00-.91.39c.38.91.84 2.43.66 2.94a.5.5 0 00.47.66"/><path id="aX" d="M1179.4 584.09a.5.5 0 00.33-.14c1.06-.97 1.14-2.08 1.26-3.61l.06-.8a.5.5 0 00-.45-.54.5.5 0 00-.54.45l-.07.81c-.1 1.45-.16 2.26-.93 2.96a.5.5 0 00-.03.7c.1.11.23.17.37.17"/><path id="aY" d="M1186.44 583.73a.5.5 0 00.49-.45c.2-2.1-.13-4.16-.14-4.24a.5.5 0 00-.98.16c0 .02.32 2.01.13 3.99a.5.5 0 00.45.54h.05"/><path id="aZ" d="M1191 580a.5.5 0 00.47-.32c.9-2.27-.1-3.68-.14-3.74a.5.5 0 00-.8.59c.02.04.7 1.05.01 2.79a.5.5 0 00.47.67"/><path id="ba" d="M1172.84 576.96h.05a.5.5 0 00.44-.54c-.36-3.66.41-9.5 1.56-11.8a.5.5 0 10-.89-.44c-1.24 2.46-2.04 8.46-1.65 12.34a.5.5 0 00.5.44"/><path id="bb" d="M1171.59 570.54a.5.5 0 00.26-.08l1.25-.78a.5.5 0 10-.53-.84l-1.25.78a.5.5 0 00.27.92"/><path id="bc" d="M1185.7 557.54a.5.5 0 00.11-.98 22.02 22.02 0 00-4.66-.54.5.5 0 000 1 20.96 20.96 0 014.55.52"/><path id="bd" d="M1148.32 472.32c2.1 0 3.38-.59 3.68-.75a.5.5 0 00.21-.67.5.5 0 00-.67-.21c-2.63 1.4-9.5 1.3-18.63-7.7 13.13-12.18 16.67-13.25 17.61-12.8.4.2.4.95.35 1.67a.5.5 0 10.99.08c.05-.7.16-2.14-.9-2.65-1.36-.64-4.82.02-19.1 13.32a.5.5 0 00-.16.36c0 .13.05.26.14.36 7.4 7.44 13.05 9 16.48 9"/><path id="be" d="M1135.1 463.33l.1-.01c.07-.02 6.55-1.51 9.9-.69a.5.5 0 10.23-.96c-3.57-.88-10.07.61-10.35.68a.5.5 0 00-.37.6.5.5 0 00.49.38"/><path id="bf" d="M1063.9 638.4h.14a86.99 86.99 0 0016-5.96c1.77-.84 3.31-1.56 4.89-2.11a.5.5 0 00-.33-.94c-1.62.57-3.18 1.3-5 2.15a86.09 86.09 0 01-15.82 5.9.5.5 0 00.13.97"/><path id="bg" d="M1126.09 661.13h.07c7.2-1.06 10.6-9.85 11.99-15a.5.5 0 10-.96-.26c-1.33 4.91-4.54 13.3-11.18 14.27a.5.5 0 10.07.99"/><path id="bh" d="M1087.7 659.5a.5.5 0 00.42-.23c.78-1.22 3.17-4.22 4.94-3.5a.5.5 0 10.37-.92c-2.88-1.17-6.01 3.68-6.14 3.88a.5.5 0 00.42.77"/><path id="bi" d="M1091.5 659.28a.5.5 0 00.43-.25c.5-.9 1.07-1.76 1.72-2.6a.5.5 0 00-.79-.6c-.68.87-1.28 1.78-1.8 2.72a.5.5 0 00.44.73"/><path id="bj" d="M1156.73 659.92c.65 0 1.05-.19 1.27-.56.45-.8-.08-2.11-4.16-5.88-1.85-1.7-3.27-.96-4.64-.24-1.18.62-2.4 1.27-4.2.58a.5.5 0 00-.35.92c2.22.86 3.77.04 5.02-.62 1.3-.69 2.16-1.14 3.5.1 3.97 3.66 4 4.52 3.96 4.66 0-.01-.04.05-.38.05s-.98-.08-2.12-.41a.5.5 0 10-.28.95c1.02.3 1.8.45 2.38.45"/><path id="bk" d="M1156.74 515.86a.5.5 0 00.5-.5c-.04-2.48.47-9.1 3.12-9.95a.5.5 0 00.32-.63.5.5 0 00-.62-.32c-3.9 1.26-3.82 10.52-3.82 10.91 0 .28.23.5.5.5"/><path id="bl" d="M1139.88 544.85c-.2.07-.05 0 .03-.03l.06-.06.36-.39c.3-.32.82-.39 1.2-.22.43.17.65.55.69 1 .07 1.04-.78 1.75-1.65 2.1-.6.24-1.4-.27-1.53-.88-.16-.68.2-1.28.84-1.52"/><path id="bm" d="M1133.22 550.31c.26-.32.7-.56 1.05-.77.36-.21.73-.43 1.15-.5.73-.1 1.28.53.94 1.23-.2.4-.53.69-.86.98-.38.34-.76.66-1.25.85-.43.17-.98-.12-1.2-.5-.26-.43-.14-.92.17-1.29"/><path id="bn" d="M1134.9 555.56c.34-.25.71-.43 1.05-.67.02 0 .03-.02.04-.03l.22-.17c.19-.15.37-.32.59-.46a1 1 0 011.12.08c.29.23.5.69.36 1.06-.2.5-.51.9-.93 1.23-.4.32-.87.7-1.37.8-.47.1-1.01-.06-1.25-.5-.2-.4-.22-1.03.18-1.34"/><path id="bo" d="M1137.08 559.62c.13-.05.26-.07.4-.11l.18-.07.08-.03.05-.02.17-.1c.12-.07.22-.15.34-.2.34-.16.7-.18 1.02.07.26.2.46.62.33.96a2.58 2.58 0 01-2.29 1.56c-.52 0-.96-.39-1.03-.9-.07-.55.26-.97.75-1.16"/><path id="bp" d="M1141.7 549.78c.27-.2.71-.36.97-.58.32-.26.55-.64.92-.82.45-.3 1.16-.08 1.14.55 0 .07.02.36-.03.53-.04.14-.1.28-.18.4-.16.28-.36.54-.58.77-.45.5-1.08.9-1.75.96-.42.05-.83-.33-.94-.71-.12-.45.1-.83.45-1.1"/><path id="bq" d="M1142.67 554.9c.17-.22.33-.39.58-.5.15-.07.29-.15.42-.24l.09-.08.16-.16c.1-.11.25-.23.3-.31.1-.15.27-.3.45-.33.26-.1.55-.02.67.25.1.11.16.26.16.42 0 .62-.16 1.09-.58 1.56-.4.45-1.1.9-1.72.68-.48-.17-.9-.8-.53-1.3"/><path id="br" d="M1160.2 440.23c.7-.18 1.4-.12 2.12-.07.54.03 1.02.36 1.05.95.03.6-.41.96-.95 1.05-.7.12-1.4.25-2.12.15-1.03-.16-1.12-1.82-.1-2.08"/><path id="bs" d="M1160.57 445.15c.44.15.82.4 1.3.45.42.05.85-.04 1.27-.04a.7.7 0 01.55 1.16c-.86 1.07-3.02.99-3.94.02-.56-.6-.14-1.94.82-1.6"/><path id="bt" d="M1101.35 578.84h.02a.4.4 0 00.37-.42 29.58 29.58 0 00-4.81-13.74.39.39 0 10-.66.43 28.77 28.77 0 014.69 13.37c.01.2.18.36.39.36"/><path id="bu" d="M1104.72 575.48c.14 0 .27-.07.34-.2a.4.4 0 00-.14-.53c-3.44-2.03-5.73-6.73-6.72-10.46a.4.4 0 00-.76.2c1.03 3.88 3.43 8.79 7.09 10.93a.4.4 0 00.2.06"/><path id="c" d="M1103.62 655.15h19.33v52.01h-19.33z"/><path id="bw" d="M1103.62 655.15c3.05.09 4.07.05 3.96 2.31-.12 2.26 1.6 11.68 4.89 19.06 2.9 6.5 7.47 14.44 8.53 17.08 1.05 2.64 2.13 11.26 1.93 12.63-.2 1.38-2.88.92-4.43.52.92-1.78-2.07-18.02-8.27-27.3-6.2-9.28-6.27-13.64-6.61-24.3"/><clipPath id="B"><use xlink:href="#a"/></clipPath><clipPath id="am"><use xlink:href="#b"/></clipPath><clipPath id="bv"><use xlink:href="#c"/></clipPath></defs><use fill="#eb7d16" xlink:href="#d" transform="rotate(-6 -3145.44 10228.49)"/><use fill="#5eb2fc" xlink:href="#e" transform="rotate(-6 -3145.44 10228.49)"/><use fill="#5eb2fc" xlink:href="#f" transform="rotate(-6 -3145.44 10228.49)"/><use fill="#1273eb" xlink:href="#g" transform="rotate(-6 -3145.44 10228.49)"/><use fill="#1273eb" xlink:href="#h" transform="rotate(-6 -3145.44 10228.49)"/><use fill="#0353a7" xlink:href="#i" transform="rotate(-6 -3145.44 10228.49)"/><use fill="#0161cd" xlink:href="#j" transform="rotate(-6 -3145.44 10228.49)"/><use fill="#fcd250" xlink:href="#k" transform="rotate(-6 -3145.44 10228.49)"/><use fill="#fcd250" xlink:href="#l" transform="rotate(-6 -3145.44 10228.49)"/><use fill="#fcbd24" xlink:href="#m" transform="rotate(-6 -3145.44 10228.49)"/><use fill="#fcbd24" xlink:href="#n" transform="rotate(-6 -3145.44 10228.49)"/><use fill="#eb7d16" xlink:href="#o" transform="rotate(-6 -3145.44 10228.49)"/><use fill="#eb7d16" xlink:href="#p" transform="rotate(-6 -3145.44 10228.49)"/><use fill="#eb7d16" xlink:href="#q" transform="rotate(-6 -3145.44 10228.49)"/><use fill="#fcd250" xlink:href="#r" transform="rotate(-6 -3145.44 10228.49)"/><use fill="#fcbd24" xlink:href="#s" transform="rotate(-6 -3145.44 10228.49)"/><use fill="#1273eb" xlink:href="#t" transform="rotate(-6 -3145.44 10228.49)"/><use fill="#fcbd24" xlink:href="#u" transform="rotate(-6 -3145.44 10228.49)"/><use fill="#fcd250" xlink:href="#v" transform="rotate(-6 -3145.44 10228.49)"/><use fill="#fcbd24" xlink:href="#w" transform="rotate(-6 -3145.44 10228.49)"/><use fill="#0161cd" xlink:href="#x" transform="rotate(-6 -3145.44 10228.49)"/><use fill="#5eb2fc" xlink:href="#y" transform="rotate(-6 -3145.44 10228.49)"/><use fill="#fcd250" xlink:href="#z" transform="rotate(-6 -3145.44 10228.49)"/><use fill="#fcbd24" xlink:href="#A" transform="rotate(-6 -3145.44 10228.49)"/><g clip-path="url(#B)" transform="rotate(-6 -3145.44 10228.49)"><use fill="#5eb2fc" xlink:href="#C"/></g><use fill="#1273eb" xlink:href="#D" transform="rotate(-6 -3145.44 10228.49)"/><use fill="#fcd250" xlink:href="#E" transform="rotate(-6 -3145.44 10228.49)"/><use fill="#5eb2fc" xlink:href="#F" transform="rotate(-6 -3145.44 10228.49)"/><use fill="#1273eb" xlink:href="#G" transform="rotate(-6 -3145.44 10228.49)"/><use fill="#5eb2fc" xlink:href="#H" transform="rotate(-6 -3145.44 10228.49)"/><use fill="#1273eb" xlink:href="#I" transform="rotate(-6 -3145.44 10228.49)"/><use fill="#fcd250" xlink:href="#J" transform="rotate(-6 -3145.44 10228.49)"/><use fill="#fcbd24" xlink:href="#K" transform="rotate(-6 -3145.44 10228.49)"/><use fill="#fcbd24" xlink:href="#L" transform="rotate(-6 -3145.44 10228.49)"/><use fill="#5eb2fc" xlink:href="#M" transform="rotate(-6 -3145.44 10228.49)"/><use fill="#1273eb" xlink:href="#N" transform="rotate(-6 -3145.44 10228.49)"/><use fill="#1273eb" xlink:href="#O" transform="rotate(-6 -3145.44 10228.49)"/><use fill="#5eb2fc" xlink:href="#P" transform="rotate(-6 -3145.44 10228.49)"/><use fill="#1273eb" xlink:href="#Q" transform="rotate(-6 -3145.44 10228.49)"/><use fill="#1273eb" xlink:href="#R" transform="rotate(-6 -3145.44 10228.49)"/><use fill="#194c80" xlink:href="#S" transform="rotate(-6 -3145.44 10228.49)"/><use fill="#5eb2fc" xlink:href="#T" transform="rotate(-6 -3145.44 10228.49)"/><use fill="#1273eb" xlink:href="#U" transform="rotate(-6 -3145.44 10228.49)"/><use fill="#1273eb" xlink:href="#V" transform="rotate(-6 -3145.44 10228.49)"/><use fill="#1273eb" xlink:href="#W" transform="rotate(-6 -3145.44 10228.49)"/><use fill="#fcd250" xlink:href="#X" transform="rotate(-6 -3145.44 10228.49)"/><use fill="#fcd250" xlink:href="#Y" transform="rotate(-6 -3145.44 10228.49)"/><use fill="#fcbd24" xlink:href="#Z" transform="rotate(-6 -3145.44 10228.49)"/><use fill="#fcbd24" xlink:href="#aa" transform="rotate(-6 -3145.44 10228.49)"/><use fill="#1273eb" xlink:href="#ab" transform="rotate(-6 -3145.44 10228.49)"/><use fill="#0161cd" xlink:href="#ac" transform="rotate(-6 -3145.44 10228.49)"/><use fill="#0161cd" xlink:href="#ad" transform="rotate(-6 -3145.44 10228.49)"/><use fill="#c8e7fa" xlink:href="#ae" transform="rotate(-6 -3145.44 10228.49)"/><use fill="#194c80" xlink:href="#af" transform="rotate(-6 -3145.44 10228.49)"/><use fill="#5eb2fc" xlink:href="#ag" transform="rotate(-6 -3145.44 10228.49)"/><use fill="#1273eb" xlink:href="#ah" transform="rotate(-6 -3145.44 10228.49)"/><use fill="#1273eb" xlink:href="#ai" transform="rotate(-6 -3145.44 10228.49)"/><use fill="#5eb2fc" xlink:href="#aj" transform="rotate(-6 -3145.44 10228.49)"/><use fill="#fcbd24" xlink:href="#ak" transform="rotate(-6 -3145.44 10228.49)"/><use fill="#fcd250" xlink:href="#al" transform="rotate(-6 -3145.44 10228.49)"/><g clip-path="url(#am)" transform="rotate(-6 -3145.44 10228.49)"><use fill="#fcbd24" xlink:href="#an"/></g><use fill="#fcd250" xlink:href="#ao" transform="rotate(-6 -3145.44 10228.49)"/><use fill="#fcd250" xlink:href="#ap" transform="rotate(-6 -3145.44 10228.49)"/><use fill="#fcbd24" xlink:href="#aq" transform="rotate(-6 -3145.44 10228.49)"/><use fill="#c8e7fa" xlink:href="#ar" transform="rotate(-6 -3145.44 10228.49)"/><use fill="#92cdfa" xlink:href="#as" transform="rotate(-6 -3145.44 10228.49)"/><use fill="#5eb2fc" xlink:href="#at" transform="rotate(-6 -3145.44 10228.49)"/><use fill="#0161cd" xlink:href="#au" transform="rotate(-6 -3145.44 10228.49)"/><use fill="#5eb2fc" xlink:href="#av" transform="rotate(-6 -3145.44 10228.49)"/><use fill="#5eb2fc" xlink:href="#aw" transform="rotate(-6 -3145.44 10228.49)"/><use fill="#0161cd" xlink:href="#ax" transform="rotate(-6 -3145.44 10228.49)"/><use fill="#5eb2fc" xlink:href="#ay" transform="rotate(-6 -3145.44 10228.49)"/><use fill="#194c80" xlink:href="#az" transform="rotate(-6 -3145.44 10228.49)"/><use fill="#fcd250" xlink:href="#aA" transform="rotate(-6 -3145.44 10228.49)"/><use fill="#fcd250" xlink:href="#aB" transform="rotate(-6 -3145.44 10228.49)"/><use fill="#f9fafb" xlink:href="#aC" transform="rotate(-6 -3145.44 10228.49)"/><use fill="#92cdfa" xlink:href="#aD" transform="rotate(-6 -3145.44 10228.49)"/><use fill="#92cdfa" xlink:href="#aE" transform="rotate(-6 -3145.44 10228.49)"/><use fill="#92cdfa" xlink:href="#aF" transform="rotate(-6 -3145.44 10228.49)"/><use fill="#0161cd" xlink:href="#aG" transform="rotate(-6 -3145.44 10228.49)"/><use fill="#0161cd" xlink:href="#aH" transform="rotate(-6 -3145.44 10228.49)"/><use fill="#0161cd" xlink:href="#aI" transform="rotate(-6 -3145.44 10228.49)"/><use fill="#0161cd" xlink:href="#aJ" transform="rotate(-6 -3145.44 10228.49)"/><use fill="#0161cd" xlink:href="#aK" transform="rotate(-6 -3145.44 10228.49)"/><use fill="#0161cd" xlink:href="#aL" transform="rotate(-6 -3145.44 10228.49)"/><use fill="#0161cd" xlink:href="#aM" transform="rotate(-6 -3145.44 10228.49)"/><use fill="#0161cd" xlink:href="#aN" transform="rotate(-6 -3145.44 10228.49)"/><use fill="#0161cd" xlink:href="#aO" transform="rotate(-6 -3145.44 10228.49)"/><use fill="#0161cd" xlink:href="#aP" transform="rotate(-6 -3145.44 10228.49)"/><use fill="#0161cd" xlink:href="#aQ" transform="rotate(-6 -3145.44 10228.49)"/><use fill="#0161cd" xlink:href="#aR" transform="rotate(-6 -3145.44 10228.49)"/><use fill="#0161cd" xlink:href="#aS" transform="rotate(-6 -3145.44 10228.49)"/><use fill="#eb7d16" xlink:href="#aT" transform="rotate(-6 -3145.44 10228.49)"/><use fill="#eb7d16" xlink:href="#aU" transform="rotate(-6 -3145.44 10228.49)"/><use fill="#eb7d16" xlink:href="#aV" transform="rotate(-6 -3145.44 10228.49)"/><use fill="#eb7d16" xlink:href="#aW" transform="rotate(-6 -3145.44 10228.49)"/><use fill="#eb7d16" xlink:href="#aX" transform="rotate(-6 -3145.44 10228.49)"/><use fill="#eb7d16" xlink:href="#aY" transform="rotate(-6 -3145.44 10228.49)"/><use fill="#eb7d16" xlink:href="#aZ" transform="rotate(-6 -3145.44 10228.49)"/><use fill="#eb7d16" xlink:href="#ba" transform="rotate(-6 -3145.44 10228.49)"/><use fill="#eb7d16" xlink:href="#bb" transform="rotate(-6 -3145.44 10228.49)"/><use fill="#eb7d16" xlink:href="#bc" transform="rotate(-6 -3145.44 10228.49)"/><use fill="#eb7d16" xlink:href="#bd" transform="rotate(-6 -3145.44 10228.49)"/><use fill="#eb7d16" xlink:href="#be" transform="rotate(-6 -3145.44 10228.49)"/><use fill="#eb7d16" xlink:href="#bf" transform="rotate(-6 -3145.44 10228.49)"/><use fill="#eb7d16" xlink:href="#bg" transform="rotate(-6 -3145.44 10228.49)"/><use fill="#eb7d16" xlink:href="#bh" transform="rotate(-6 -3145.44 10228.49)"/><use fill="#eb7d16" xlink:href="#bi" transform="rotate(-6 -3145.44 10228.49)"/><use fill="#eb7d16" xlink:href="#bj" transform="rotate(-6 -3145.44 10228.49)"/><use fill="#0161cd" xlink:href="#bk" transform="rotate(-6 -3145.44 10228.49)"/><use fill="#69e781" xlink:href="#bl" transform="rotate(-6 -3145.44 10228.49)"/><use fill="#ec3a3b" xlink:href="#bm" transform="rotate(-6 -3145.44 10228.49)"/><use fill="#ec3a3b" xlink:href="#bn" transform="rotate(-6 -3145.44 10228.49)"/><use fill="#ec3a3b" xlink:href="#bo" transform="rotate(-6 -3145.44 10228.49)"/><use fill="#69e781" xlink:href="#bp" transform="rotate(-6 -3145.44 10228.49)"/><use fill="#69e781" xlink:href="#bq" transform="rotate(-6 -3145.44 10228.49)"/><use fill="#69e781" xlink:href="#br" transform="rotate(-6 -3145.44 10228.49)"/><use fill="#ec3a3b" xlink:href="#bs" transform="rotate(-6 -3145.44 10228.49)"/><use fill="#0161cd" xlink:href="#bt" transform="rotate(-6 -3145.44 10228.49)"/><g transform="rotate(-6 -3145.44 10228.49)"><use fill="#0161cd" xlink:href="#bu"/></g><g><g clip-path="url(#bv)" transform="rotate(-6 -3145.44 10228.49)"><use fill="#eb7d16" xlink:href="#bw"/></g></g></svg>