<svg xmlns="http://www.w3.org/2000/svg" viewBox="0 0 1279.57 124.84"><g data-name="Layer 2"><path d="M0 98.29l15.19 1.61c15.29 1.73 46.12 4.77 76.34 4.86 30.29-.09 60.42-3.13 91.52-6.47 30.21-3.34 60.42-6.37 91.52-4.86 30.13 1.52 60.43 8.2 90.64 13 30.83 4.95 61.31 8 91.53 4.85 30.74-3.24 61.31-13 91.52-9.71 30.57 3.13 61.31 19.52 91.52 22.65 30.48 3.25 61.32-6.47 91.53-12.94s60.42-9.62 91.52-8.1c30.22 1.52 60.43 8.2 91.53 8.1 30.12.1 60.42-6.58 90.63-13 30.84-6.37 61.31-13.05 91.53-11.32 30.74 1.61 61.31 11.32 91.52 17.79 30.57 6.59 61.31 9.62 76.42 11.35l15.11 1.61V40H0v58.29z" fill="#fcfcfc" data-name="Layer 4"/><path d="M0 78.29l15.19 1.61c15.29 1.73 46.12 4.77 76.34 4.86 30.29-.09 60.42-3.13 91.52-6.47 30.21-3.34 60.42-6.37 91.52-4.86 30.13 1.52 60.43 8.2 90.64 13 30.83 4.95 61.31 8 91.53 4.85 30.74-3.24 61.31-13 91.52-9.71 30.57 3.13 61.31 19.52 91.52 22.65 30.48 3.25 61.32-6.47 91.53-12.94s60.42-9.62 91.52-8.1c30.22 1.52 60.43 8.2 91.53 8.1 30.12.1 60.42-6.58 90.63-13 30.84-6.37 61.31-13.05 91.53-11.32 30.74 1.61 61.31 11.32 91.52 17.79 30.57 6.59 61.31 9.62 76.42 11.35l15.11 1.61V20H0v58.29z" fill="#f7f7f7" data-name="Layer 2"/><path d="M0 58.29l15.19 1.61c15.29 1.73 46.12 4.77 76.34 4.86 30.29-.09 60.42-3.13 91.52-6.47 30.21-3.34 60.42-6.37 91.52-4.86 30.13 1.52 60.43 8.2 90.64 13 30.83 4.95 61.31 8 91.53 4.85 30.74-3.24 61.31-13 91.52-9.71 30.57 3.13 61.31 19.52 91.52 22.65 30.48 3.25 61.32-6.47 91.53-12.94s60.42-9.62 91.52-8.1c30.22 1.52 60.43 8.2 91.53 8.1 30.12.1 60.42-6.58 90.63-13 30.84-6.37 61.31-13 91.53-11.32 30.74 1.61 61.31 11.32 91.52 17.79 30.57 6.59 61.31 9.62 76.42 11.35l15.11 1.61V0H0v58.29z" fill="#f5f5f5" data-name="Layer 3"/></g></svg>