<svg xmlns="http://www.w3.org/2000/svg" width="171" height="169"><defs><clipPath id="a"><path fill="none" d="M0 0h171v169H0z"/></clipPath></defs><g data-name="Group 132"><g data-name="Repeat Grid 2" clip-path="url(#a)" opacity=".5"><circle data-name="Ellipse 18" cx="5.5" cy="5.5" r="5.5" fill="#cccde5"/><circle data-name="Ellipse 18" cx="5.5" cy="5.5" r="5.5" transform="translate(31)" fill="#cccde5"/><circle data-name="Ellipse 18" cx="5.5" cy="5.5" r="5.5" transform="translate(62)" fill="#cccde5"/><circle data-name="Ellipse 18" cx="5.5" cy="5.5" r="5.5" transform="translate(93)" fill="#cccde5"/><circle data-name="Ellipse 18" cx="5.5" cy="5.5" r="5.5" transform="translate(124)" fill="#cccde5"/><circle data-name="Ellipse 18" cx="5.5" cy="5.5" r="5.5" transform="translate(155)" fill="#cccde5"/><circle data-name="Ellipse 18" cx="5.5" cy="5.5" r="5.5" transform="translate(0 31)" fill="#cccde5"/><circle data-name="Ellipse 18" cx="5.5" cy="5.5" r="5.5" transform="translate(31 31)" fill="#cccde5"/><circle data-name="Ellipse 18" cx="5.5" cy="5.5" r="5.5" transform="translate(62 31)" fill="#cccde5"/><circle data-name="Ellipse 18" cx="5.5" cy="5.5" r="5.5" transform="translate(93 31)" fill="#cccde5"/><circle data-name="Ellipse 18" cx="5.5" cy="5.5" r="5.5" transform="translate(124 31)" fill="#cccde5"/><circle data-name="Ellipse 18" cx="5.5" cy="5.5" r="5.5" transform="translate(155 31)" fill="#cccde5"/><circle data-name="Ellipse 18" cx="5.5" cy="5.5" r="5.5" transform="translate(0 62)" fill="#cccde5"/><circle data-name="Ellipse 18" cx="5.5" cy="5.5" r="5.5" transform="translate(31 62)" fill="#cccde5"/><circle data-name="Ellipse 18" cx="5.5" cy="5.5" r="5.5" transform="translate(62 62)" fill="#cccde5"/><circle data-name="Ellipse 18" cx="5.5" cy="5.5" r="5.5" transform="translate(93 62)" fill="#cccde5"/><circle data-name="Ellipse 18" cx="5.5" cy="5.5" r="5.5" transform="translate(124 62)" fill="#cccde5"/><circle data-name="Ellipse 18" cx="5.5" cy="5.5" r="5.5" transform="translate(155 62)" fill="#cccde5"/><circle data-name="Ellipse 18" cx="5.5" cy="5.5" r="5.5" transform="translate(0 93)" fill="#cccde5"/><circle data-name="Ellipse 18" cx="5.5" cy="5.5" r="5.5" transform="translate(31 93)" fill="#cccde5"/><circle data-name="Ellipse 18" cx="5.5" cy="5.5" r="5.5" transform="translate(62 93)" fill="#cccde5"/><circle data-name="Ellipse 18" cx="5.5" cy="5.5" r="5.5" transform="translate(93 93)" fill="#cccde5"/><circle data-name="Ellipse 18" cx="5.5" cy="5.5" r="5.5" transform="translate(124 93)" fill="#cccde5"/><circle data-name="Ellipse 18" cx="5.5" cy="5.5" r="5.5" transform="translate(155 93)" fill="#cccde5"/><circle data-name="Ellipse 18" cx="5.5" cy="5.5" r="5.5" transform="translate(0 124)" fill="#cccde5"/><circle data-name="Ellipse 18" cx="5.5" cy="5.5" r="5.5" transform="translate(31 124)" fill="#cccde5"/><circle data-name="Ellipse 18" cx="5.5" cy="5.5" r="5.5" transform="translate(62 124)" fill="#cccde5"/><circle data-name="Ellipse 18" cx="5.5" cy="5.5" r="5.5" transform="translate(93 124)" fill="#cccde5"/><circle data-name="Ellipse 18" cx="5.5" cy="5.5" r="5.5" transform="translate(124 124)" fill="#cccde5"/><circle data-name="Ellipse 18" cx="5.5" cy="5.5" r="5.5" transform="translate(155 124)" fill="#cccde5"/><circle data-name="Ellipse 18" cx="5.5" cy="5.5" r="5.5" transform="translate(0 155)" fill="#cccde5"/><circle data-name="Ellipse 18" cx="5.5" cy="5.5" r="5.5" transform="translate(31 155)" fill="#cccde5"/><circle data-name="Ellipse 18" cx="5.5" cy="5.5" r="5.5" transform="translate(62 155)" fill="#cccde5"/><circle data-name="Ellipse 18" cx="5.5" cy="5.5" r="5.5" transform="translate(93 155)" fill="#cccde5"/><circle data-name="Ellipse 18" cx="5.5" cy="5.5" r="5.5" transform="translate(124 155)" fill="#cccde5"/><circle data-name="Ellipse 18" cx="5.5" cy="5.5" r="5.5" transform="translate(155 155)" fill="#cccde5"/></g></g></svg>