<svg xmlns="http://www.w3.org/2000/svg" width="9.429" height="48.446"><path data-name="Path 77" d="M2.916 0s5.533 3.866 6 5.933-3.8 5.333-3.8 5.333 4.8 2.333 4.2 3.867S5.116 20 5.116 20s4 2.467 3.8 3.867-3.8 4.733-3.8 4.733 4.4 2.333 3.8 4.267-3.8 4.8-3.8 4.8S10.249 40.2 9.316 42s-6.4 6.333-6.4 6.333a2.54 2.54 0 01-1.5 0 1.648 1.648 0 01-.965-2.6A11.092 11.092 0 014.384 42s-4.4-3.133-4.333-4.333 4.333-4.4 4.333-4.4-3.733-2.8-3.933-4.133 3.933-4.8 3.933-4.8-4.8-2.866-4.333-4.333 4.333-4.467 4.333-4.467-4.933-3.8-4.333-4.6 4.333-4.667 4.333-4.667-4.6-3.84-3.669-4.773L1.737.668h.005L1.99.332l.927-.328z" fill="#101643"/></svg>